<svg xmlns="http://www.w3.org/2000/svg" xmlns:xlink="http://www.w3.org/1999/xlink" id="terminal" width="1224" baseProfile="full" version="1.1" viewBox="0 0 1224 750"><defs><termtosvg:template_settings xmlns:termtosvg="https://github.com/nbedos/termtosvg"><termtosvg:screen_geometry columns="153" rows="44"/><termtosvg:animation type="css"/></termtosvg:template_settings><style id="generated-style" type="text/css">@keyframes roll{0%{transform:translateY(0)}.007%{transform:translateY(-782px)}.449%{transform:translateY(-1564px)}6.864%{transform:translateY(-2346px)}6.891%{transform:translateY(-3128px)}7.836%{transform:translateY(-3910px)}7.862%{transform:translateY(-4692px)}9.376%{transform:translateY(-5474px)}9.403%{transform:translateY(-6256px)}9.476%{transform:translateY(-7038px)}9.496%{transform:translateY(-7820px)}10.059%{transform:translateY(-8602px)}10.072%{transform:translateY(-9384px)}19.046%{transform:translateY(-10166px)}19.12%{transform:translateY(-10948px)}19.729%{transform:translateY(-11730px)}19.77%{transform:translateY(-12512px)}21.323%{transform:translateY(-13294px)}21.384%{transform:translateY(-14076px)}24.605%{transform:translateY(-14858px)}24.665%{transform:translateY(-15640px)}28.945%{transform:translateY(-16422px)}28.998%{transform:translateY(-17204px)}29.132%{transform:translateY(-17986px)}29.152%{transform:translateY(-18768px)}50.415%{transform:translateY(-19550px)}50.79%{transform:translateY(-20332px)}65.068%{transform:translateY(-21114px)}79.32%{transform:translateY(-21896px)}79.34%{transform:translateY(-22678px)}79.494%{transform:translateY(-23460px)}79.514%{transform:translateY(-24242px)}79.554%{transform:translateY(-25024px)}79.601%{transform:translateY(-25806px)}79.641%{transform:translateY(-26588px)}79.695%{transform:translateY(-27370px)}79.748%{transform:translateY(-28152px)}79.782%{transform:translateY(-28934px)}80.19%{transform:translateY(-29716px)}80.224%{transform:translateY(-30498px)}93.196%{transform:translateY(-31280px)}93.303%{transform:translateY(-32062px)}}#screen{font-family:&apos;DejaVu Sans Mono&apos;,monospace;font-style:normal;font-size:14px}text{dominant-baseline:text-before-edge;white-space:pre}:root{--animation-duration:14932ms}#screen_view{animation-duration:14932ms;animation-iteration-count:infinite;animation-name:roll;animation-timing-function:steps(1,end);animation-fill-mode:forwards}</style><style id="user-style" type="text/css">.foreground{fill:#212121}.background{fill:#fff}.color0{fill:#0c0c0c}.color2{fill:#13a10e}.color12{fill:#3b78ff}</style></defs><svg id="screen" width="1224" height="748" preserveAspectRatio="xMidYMin slice" viewBox="0 0 1224 748"><rect width="100%" height="100%" x="0" y="0" class="background"/><defs><g id="g1"><text x="0" class="foreground" textLength="376">Welcome to fish, the friendly interactive shell</text></g><g id="g2"><text x="0" class="foreground" textLength="40">Type</text><text x="40" class="color2" textLength="32">help</text><text x="72" class="foreground" textLength="288">for instructions on how to use fish</text></g><g id="g4"><text x="0" class="foreground" textLength="88">[16:31:24]</text><text x="88" class="color12" textLength="160">tgotwig@Thomass-Air</text><text x="248" class="color2" textLength="200">/Users/tgotwig/Downloads</text></g><g id="g5"><text x="0" class="foreground" textLength="16">&gt;</text></g><g id="g6"><text x="0" class="foreground" textLength="24">&gt; l</text></g><g id="g7"><text x="0" class="foreground" textLength="16">&gt;</text><text x="16" fill="#9177e5" textLength="8">l</text><text x="24" class="background" textLength="8">l</text></g><g id="g8"><text x="0" class="foreground" textLength="16">&gt;</text><text x="16" fill="#9177e5" textLength="16">ll</text></g><g id="g9"><text x="0" class="foreground" textLength="16">&gt;</text><text x="16" fill="#164cc9" textLength="16">ll</text></g><g id="g10"><text x="0" class="foreground" textLength="16">&gt;</text><text x="16" fill="#164cc9" textLength="16">ll</text></g><g id="g11"><text x="0" class="foreground" textLength="88">total 26056</text></g><g id="g12"><text x="0" class="foreground" textLength="432">-rw-r--r--@ 1 tgotwig staff 4.1M Jan 26 14:17 1.mp4</text></g><g id="g13"><text x="0" class="foreground" textLength="432">-rw-r--r--@ 1 tgotwig staff 4.1M Dec 22 21:17 2.mp4</text></g><g id="g14"><text x="0" class="foreground" textLength="432">-rw-r--r--@ 1 tgotwig staff 4.1M Dec 22 21:17 3.mp4</text></g><g id="g16"><text x="0" class="foreground" textLength="88">[16:31:25]</text><text x="88" class="color12" textLength="160">tgotwig@Thomass-Air</text><text x="248" class="color2" textLength="200">/Users/tgotwig/Downloads</text></g><g id="g17"><text x="0" class="foreground" textLength="24">&gt; v</text></g><g id="g18"><text x="0" class="foreground" textLength="16">&gt;</text><text x="16" fill="#9177e5" textLength="8">v</text><text x="24" class="background" textLength="8">i</text><text x="32" fill="#7596e4" textLength="72">dmerger .</text></g><g id="g19"><text x="0" class="foreground" textLength="16">&gt;</text><text x="16" fill="#9177e5" textLength="16">vi</text><text x="32" class="background" textLength="8">d</text><text x="40" fill="#7596e4" textLength="64">merger .</text></g><g id="g20"><text x="0" class="foreground" textLength="16">&gt;</text><text x="16" fill="#164cc9" textLength="16">vi</text><text x="32" class="background" textLength="8">d</text><text x="40" fill="#7596e4" textLength="64">merger .</text></g><g id="g21"><text x="0" class="foreground" textLength="16">&gt;</text><text x="16" fill="#164cc9" textLength="24">vid</text><text x="40" class="background" textLength="8">m</text><text x="48" fill="#7596e4" textLength="56">erger .</text></g><g id="g22"><text x="0" class="foreground" textLength="16">&gt;</text><text x="16" fill="#9177e5" textLength="24">vid</text><text x="40" class="background" textLength="8">m</text><text x="48" fill="#7596e4" textLength="56">erger .</text></g><g id="g23"><text x="0" class="foreground" textLength="104">&gt; vidmerger .</text></g><g id="g24"><text x="0" class="foreground" textLength="16">&gt;</text><text x="16" fill="#164cc9" textLength="72">vidmerger</text><text x="96" fill="#4319cc" text-decoration="underline" textLength="8">.</text></g><g id="g25"><text x="0" class="foreground" textLength="16">&gt;</text><text x="16" fill="#164cc9" textLength="72">vidmerger</text><text x="96" fill="#4319cc" text-decoration="underline" textLength="8">.</text></g><g id="g26"><text x="0" class="foreground" textLength="512">----------------------------------------------------------------</text></g><g id="g27"><text x="0" class="foreground" textLength="160">📜 Order of merging:</text></g><g id="g28"><text x="0" class="foreground" textLength="56">- 1.mp4</text></g><g id="g29"><text x="0" class="foreground" textLength="56">- 2.mp4</text></g><g id="g30"><text x="0" class="foreground" textLength="56">- 3.mp4</text></g><g id="g31"><text x="0" class="foreground" textLength="224">⏳ Waiting 3 seconds to read</text></g><g id="g32"><text x="0" class="foreground" textLength="208">🔎 FPS mismatches detected</text></g><g id="g33"><text x="0" class="foreground" textLength="200">Will be merged directly:</text></g><g id="g34"><text x="0" class="foreground" textLength="128">- 1.mp4 (23 fps)</text></g><g id="g35"><text x="0" class="foreground" textLength="856">Will be merged indirectly, generating new files from listed below with 23 fps and merges with listed above:</text></g><g id="g36"><text x="0" class="foreground" textLength="152">- 2.mp4 (23.98 fps)</text></g><g id="g37"><text x="0" class="foreground" textLength="152">- 3.mp4 (23.98 fps)</text></g><g id="g38"><text x="0" class="foreground" textLength="240">🚀 Start FPS Changer, calling:</text></g><g id="g39"><text x="0" class="foreground" textLength="712">- ffmpeg -i ./2.mp4 -r 23 /var/folders/45/2z_3jjg56bn0j5z8v_51lll40000gn/T/F4AOhsiq/2.mp4</text></g><g id="g40"><text x="0" class="foreground" textLength="712">- ffmpeg -i ./3.mp4 -r 23 /var/folders/45/2z_3jjg56bn0j5z8v_51lll40000gn/T/F4AOhsiq/3.mp4</text></g><g id="g41"><text x="0" class="foreground" textLength="200">🚀 Start Merger, calling:</text></g><g id="g42"><text x="0" class="foreground" textLength="1064">- ffmpeg -y -f concat -safe 0 -i /var/folders/45/2z_3jjg56bn0j5z8v_51lll40000gn/T/F4AOhsiq/ffmpeg_input_file.txt -c copy ./output.mp4</text></g><g id="g43"><text x="0" class="foreground" textLength="528">ffmpeg version 5.1.2 Copyright (c) 2000-2022 the FFmpeg developers</text></g><g id="g44"><text x="0" class="foreground" textLength="488">built with Apple clang version 14.0.0 (clang-1400.0.29.202)</text></g><g id="g45"><text x="0" class="foreground" textLength="1224">configuration: --prefix=/opt/homebrew/Cellar/ffmpeg/5.1.2_4 --enable-shared --enable-pthreads --enable-version3 --cc=clang --host-cflags= --host-ldflag</text></g><g id="g46"><text x="0" class="foreground" textLength="1224">s= --enable-ffplay --enable-gnutls --enable-gpl --enable-libaom --enable-libaribb24 --enable-libbluray --enable-libdav1d --enable-libmp3lame --enable-lib</text></g><g id="g47"><text x="0" class="foreground" textLength="1224">opus --enable-librav1e --enable-librist --enable-librubberband --enable-libsnappy --enable-libsrt --enable-libsvtav1 --enable-libtesseract --enable-libth</text></g><g id="g48"><text x="0" class="foreground" textLength="1224">eora --enable-libvidstab --enable-libvmaf --enable-libvorbis --enable-libvpx --enable-libwebp --enable-libx264 --enable-libx265 --enable-libxml2 --enable</text></g><g id="g49"><text x="0" class="foreground" textLength="1224">-libxvid --enable-lzma --enable-libfontconfig --enable-libfreetype --enable-frei0r --enable-libass --enable-libopencore-amrnb --enable-libopencore-amrwb</text></g><g id="g50"><text x="0" class="foreground" textLength="1024">--enable-libopenjpeg --enable-libspeex --enable-libsoxr --enable-libzmq --enable-libzimg --disable-libjack --disable-indev=jack</text></g><g id="g51"><text x="0" class="foreground" textLength="1224">--enable-libopenjpeg --enable-libspeex --enable-libsoxr --enable-libzmq --enable-libzimg --disable-libjack --disable-indev=jack --enable-videotoolbox --e</text></g><g id="g52"><text x="0" class="foreground" textLength="80">nable-neon</text></g><g id="g53"><text x="0" class="foreground" textLength="320">libavutil 57. 28.100 / 57. 28.100</text></g><g id="g54"><text x="0" class="foreground" textLength="320">libavcodec 59. 37.100 / 59. 37.100</text></g><g id="g55"><text x="0" class="foreground" textLength="320">libavformat 59. 27.100 / 59. 27.100</text></g><g id="g56"><text x="0" class="foreground" textLength="320">libavdevice 59. 7.100 / 59. 7.100</text></g><g id="g57"><text x="0" class="foreground" textLength="320">libavfilter 8. 44.100 / 8. 44.100</text></g><g id="g58"><text x="0" class="foreground" textLength="320">libswscale 6. 7.100 / 6. 7.100</text></g><g id="g59"><text x="0" class="foreground" textLength="320">libswresample 4. 7.100 / 4. 7.100</text></g><g id="g60"><text x="0" class="foreground" textLength="320">libpostproc 56. 6.100 / 56. 6.100</text></g><g id="g61"><text x="0" fill="#ff5fff" textLength="320">[mov,mp4,m4a,3gp,3g2,mj2 @ 0x155704590]</text><text x="320" class="foreground" textLength="384">Auto-inserting h264_mp4toannexb bitstream filter</text></g><g id="g62"><text x="0" class="foreground" textLength="840">Input #0, concat, from &apos;/var/folders/45/2z_3jjg56bn0j5z8v_51lll40000gn/T/F4AOhsiq/ffmpeg_input_file.txt&apos;:</text></g><g id="g63"><text x="0" class="foreground" textLength="416">Duration: N/A, start: -0.023220, bitrate: 592 kb/s</text></g><g id="g64"><text x="0" class="foreground" textLength="1224">Stream #0:0(und): Video: h264 (High) (avc1 / 0x31637661), yuv420p(tv, bt709, progressive), 640x360 [SAR 1:1 DAR 16:9], 469 kb/s, 23 fps, 23 tbr, 11776</text></g><g id="g65"><text x="0" class="foreground" textLength="24">tbn</text></g><g id="g66"><text x="0" class="foreground" textLength="104">Metadata:</text></g><g id="g67"><text x="0" class="foreground" textLength="688">handler_name : ISO Media file produced by Google Inc. Created on: 12/22/2022.</text></g><g id="g68"><text x="0" class="foreground" textLength="288">vendor_id : [0][0][0][0]</text></g><g id="g69"><text x="0" class="foreground" textLength="360">encoder : Lavc59.37.100 libx264</text></g><g id="g70"><text x="0" class="foreground" textLength="240">Stream #0:1(und): Audio: aac</text></g><g id="g71"><text x="0" class="foreground" textLength="712">Stream #0:1(und): Audio: aac (LC) (mp4a / 0x6134706D), 44100 Hz, stereo, fltp, 122 kb/s</text></g><g id="g72"><text x="0" class="foreground" textLength="272">Output #0, mp4, to &apos;./output.mp4&apos;:</text></g><g id="g73"><text x="0" class="foreground" textLength="88">Metadata:</text></g><g id="g74"><text x="0" class="foreground" textLength="280">encoder : Lavf59.27.100</text></g><g id="g75"><text x="0" class="foreground" textLength="1224">Stream #0:0(und): Video: h264 (High) (avc1 / 0x31637661), yuv420p(tv, bt709, progressive), 640x360 [SAR 1:1 DAR 16:9], q=2-31, 469 kb/s, 23 fps, 23 tbr</text></g><g id="g76"><text x="0" class="foreground" textLength="88">, 11776 tbn</text></g><g id="g77"><text x="0" class="foreground" textLength="120">Stream mapping:</text></g><g id="g78"><text x="0" class="foreground" textLength="224">Stream #0:0 -&gt; #0:0 (copy)</text></g><g id="g79"><text x="0" class="foreground" textLength="224">Stream #0:1 -&gt; #0:1 (copy)</text></g><g id="g80"><text x="0" class="foreground" textLength="248">Press [q] to stop, [?] for help</text></g><g id="g81"><text x="0" class="foreground" textLength="320">frame= 1 fps=0.0 q=-1.0 size= 0</text></g><g id="g82"><text x="0" class="background" textLength="8">f</text><text x="8" class="foreground" textLength="672">rame= 1 fps=0.0 q=-1.0 size= 0kB time=00:00:00.00 bitrate=N/A speed=N/A</text></g><g id="g83"><text x="0" fill="#ff5fff" textLength="320">[mov,mp4,m4a,3gp,3g2,mj2 @ 0x15570fd90]</text><text x="320" class="foreground" textLength="384">Auto-inserting h264_mp4toannexb bitstream filter</text></g><g id="g84"><text x="8" class="foreground" textLength="256">Last message repeated 1 times</text></g><g id="g85"><text x="0" class="foreground" textLength="264">Last message repeated 1 times</text></g><g id="g86"><text x="0" class="foreground" textLength="816">frame= 4002 fps=0.0 q=-1.0 Lsize= 12697kB time=00:02:53.95 bitrate= 597.9kbits/s speed=4.97e+03x</text></g><g id="g87"><text x="0" class="foreground" textLength="816">video:9971kB audio:2608kB subtitle:0kB other streams:0kB global headers:0kB muxing overhead: 0.948492%</text></g><g id="g88"><text x="0" class="foreground" textLength="624">Ok(Output { status: ExitStatus(unix_wait_status(0)), stdout: &quot;&quot;, stderr: &quot;&quot; })</text></g><g id="g89"><text x="0" class="foreground" textLength="208">✅ Successfully generated:</text></g><g id="g90"><text x="0" class="foreground" textLength="96">- output.mp4</text></g><g id="g91"><text x="0" class="foreground" textLength="88">[16:31:36]</text><text x="88" class="color12" textLength="160">tgotwig@Thomass-Air</text><text x="248" class="color2" textLength="200">/Users/tgotwig/Downloads</text></g><g id="g92"><text x="0" class="foreground" textLength="1224">&gt;</text></g></defs><g id="screen_view"><g><use y="0" xlink:href="#g1"/><use y="17" xlink:href="#g2"/><rect width="8" height="17" x="0" y="34" class="foreground"/><use y="34" xlink:href="#g3"/></g><g><use y="782" xlink:href="#g1"/><use y="799" xlink:href="#g2"/><rect width="8" height="17" x="0" y="816" class="foreground"/><use y="816" xlink:href="#g3"/></g><g><use y="1564" xlink:href="#g1"/><use y="1581" xlink:href="#g2"/><use y="1598" xlink:href="#g4"/><rect width="8" height="17" x="16" y="1615" class="foreground"/><use y="1615" xlink:href="#g5"/></g><g><use y="2346" xlink:href="#g1"/><use y="2363" xlink:href="#g2"/><use y="2380" xlink:href="#g4"/><rect width="8" height="17" x="24" y="2397" class="foreground"/><use y="2397" xlink:href="#g6"/></g><g><use y="3128" xlink:href="#g1"/><use y="3145" xlink:href="#g2"/><use y="3162" xlink:href="#g4"/><rect width="8" height="17" x="24" y="3179" class="foreground"/><use y="3179" xlink:href="#g7"/></g><g><use y="3910" xlink:href="#g1"/><use y="3927" xlink:href="#g2"/><use y="3944" xlink:href="#g4"/><rect width="8" height="17" x="32" y="3961" class="foreground"/><use y="3961" xlink:href="#g8"/></g><g><use y="4692" xlink:href="#g1"/><use y="4709" xlink:href="#g2"/><use y="4726" xlink:href="#g4"/><rect width="8" height="17" x="32" y="4743" class="foreground"/><use y="4743" xlink:href="#g9"/></g><g><use y="5474" xlink:href="#g1"/><use y="5491" xlink:href="#g2"/><use y="5508" xlink:href="#g4"/><use y="5525" xlink:href="#g10"/><rect width="8" height="17" x="0" y="5542" class="foreground"/><use y="5542" xlink:href="#g3"/></g><g><use y="6256" xlink:href="#g1"/><use y="6273" xlink:href="#g2"/><use y="6290" xlink:href="#g4"/><use y="6307" xlink:href="#g10"/><rect width="8" height="17" x="0" y="6324" class="foreground"/><use y="6324" xlink:href="#g3"/></g><g><use y="7038" xlink:href="#g1"/><use y="7055" xlink:href="#g2"/><use y="7072" xlink:href="#g4"/><use y="7089" xlink:href="#g10"/><use y="7106" xlink:href="#g11"/><rect width="8" height="17" x="0" y="7123" class="foreground"/><use y="7123" xlink:href="#g3"/></g><g><use y="7820" xlink:href="#g1"/><use y="7837" xlink:href="#g2"/><use y="7854" xlink:href="#g4"/><use y="7871" xlink:href="#g10"/><use y="7888" xlink:href="#g11"/><use y="7905" xlink:href="#g12"/><use y="7922" xlink:href="#g13"/><use y="7939" xlink:href="#g14"/><rect width="8" height="17" x="0" y="7956" class="foreground"/><use y="7956" xlink:href="#g15"/></g><g><use y="8602" xlink:href="#g1"/><use y="8619" xlink:href="#g2"/><use y="8636" xlink:href="#g4"/><use y="8653" xlink:href="#g10"/><use y="8670" xlink:href="#g11"/><use y="8687" xlink:href="#g12"/><use y="8704" xlink:href="#g13"/><use y="8721" xlink:href="#g14"/><rect width="8" height="17" x="0" y="8738" class="foreground"/><use y="8738" xlink:href="#g15"/></g><g><use y="9384" xlink:href="#g1"/><use y="9401" xlink:href="#g2"/><use y="9418" xlink:href="#g4"/><use y="9435" xlink:href="#g10"/><use y="9452" xlink:href="#g11"/><use y="9469" xlink:href="#g12"/><use y="9486" xlink:href="#g13"/><use y="9503" xlink:href="#g14"/><use y="9520" xlink:href="#g16"/><rect width="8" height="17" x="16" y="9537" class="foreground"/><use y="9537" xlink:href="#g5"/></g><g><use y="10166" xlink:href="#g1"/><use y="10183" xlink:href="#g2"/><use y="10200" xlink:href="#g4"/><use y="10217" xlink:href="#g10"/><use y="10234" xlink:href="#g11"/><use y="10251" xlink:href="#g12"/><use y="10268" xlink:href="#g13"/><use y="10285" xlink:href="#g14"/><use y="10302" xlink:href="#g16"/><rect width="8" height="17" x="24" y="10319" class="foreground"/><use y="10319" xlink:href="#g17"/></g><g><use y="10948" xlink:href="#g1"/><use y="10965" xlink:href="#g2"/><use y="10982" xlink:href="#g4"/><use y="10999" xlink:href="#g10"/><use y="11016" xlink:href="#g11"/><use y="11033" xlink:href="#g12"/><use y="11050" xlink:href="#g13"/><use y="11067" xlink:href="#g14"/><use y="11084" xlink:href="#g16"/><rect width="8" height="17" x="24" y="11101" class="foreground"/><use y="11101" xlink:href="#g18"/></g><g><use y="11730" xlink:href="#g1"/><use y="11747" xlink:href="#g2"/><use y="11764" xlink:href="#g4"/><use y="11781" xlink:href="#g10"/><use y="11798" xlink:href="#g11"/><use y="11815" xlink:href="#g12"/><use y="11832" xlink:href="#g13"/><use y="11849" xlink:href="#g14"/><use y="11866" xlink:href="#g16"/><rect width="8" height="17" x="32" y="11883" class="foreground"/><use y="11883" xlink:href="#g19"/></g><g><use y="12512" xlink:href="#g1"/><use y="12529" xlink:href="#g2"/><use y="12546" xlink:href="#g4"/><use y="12563" xlink:href="#g10"/><use y="12580" xlink:href="#g11"/><use y="12597" xlink:href="#g12"/><use y="12614" xlink:href="#g13"/><use y="12631" xlink:href="#g14"/><use y="12648" xlink:href="#g16"/><rect width="8" height="17" x="32" y="12665" class="foreground"/><use y="12665" xlink:href="#g20"/></g><g><use y="13294" xlink:href="#g1"/><use y="13311" xlink:href="#g2"/><use y="13328" xlink:href="#g4"/><use y="13345" xlink:href="#g10"/><use y="13362" xlink:href="#g11"/><use y="13379" xlink:href="#g12"/><use y="13396" xlink:href="#g13"/><use y="13413" xlink:href="#g14"/><use y="13430" xlink:href="#g16"/><rect width="8" height="17" x="40" y="13447" class="foreground"/><use y="13447" xlink:href="#g21"/></g><g><use y="14076" xlink:href="#g1"/><use y="14093" xlink:href="#g2"/><use y="14110" xlink:href="#g4"/><use y="14127" xlink:href="#g10"/><use y="14144" xlink:href="#g11"/><use y="14161" xlink:href="#g12"/><use y="14178" xlink:href="#g13"/><use y="14195" xlink:href="#g14"/><use y="14212" xlink:href="#g16"/><rect width="8" height="17" x="40" y="14229" class="foreground"/><use y="14229" xlink:href="#g22"/></g><g><use y="14858" xlink:href="#g1"/><use y="14875" xlink:href="#g2"/><use y="14892" xlink:href="#g4"/><use y="14909" xlink:href="#g10"/><use y="14926" xlink:href="#g11"/><use y="14943" xlink:href="#g12"/><use y="14960" xlink:href="#g13"/><use y="14977" xlink:href="#g14"/><use y="14994" xlink:href="#g16"/><rect width="8" height="17" x="104" y="15011" class="foreground"/><use y="15011" xlink:href="#g23"/></g><g><use y="15640" xlink:href="#g1"/><use y="15657" xlink:href="#g2"/><use y="15674" xlink:href="#g4"/><use y="15691" xlink:href="#g10"/><use y="15708" xlink:href="#g11"/><use y="15725" xlink:href="#g12"/><use y="15742" xlink:href="#g13"/><use y="15759" xlink:href="#g14"/><use y="15776" xlink:href="#g16"/><rect width="8" height="17" x="104" y="15793" class="foreground"/><use y="15793" xlink:href="#g24"/></g><g><use y="16422" xlink:href="#g1"/><use y="16439" xlink:href="#g2"/><use y="16456" xlink:href="#g4"/><use y="16473" xlink:href="#g10"/><use y="16490" xlink:href="#g11"/><use y="16507" xlink:href="#g12"/><use y="16524" xlink:href="#g13"/><use y="16541" xlink:href="#g14"/><use y="16558" xlink:href="#g16"/><use y="16575" xlink:href="#g25"/><rect width="8" height="17" x="0" y="16592" class="foreground"/><use y="16592" xlink:href="#g3"/></g><g><use y="17204" xlink:href="#g1"/><use y="17221" xlink:href="#g2"/><use y="17238" xlink:href="#g4"/><use y="17255" xlink:href="#g10"/><use y="17272" xlink:href="#g11"/><use y="17289" xlink:href="#g12"/><use y="17306" xlink:href="#g13"/><use y="17323" xlink:href="#g14"/><use y="17340" xlink:href="#g16"/><use y="17357" xlink:href="#g25"/><rect width="8" height="17" x="0" y="17374" class="foreground"/><use y="17374" xlink:href="#g3"/></g><g><use y="17986" xlink:href="#g1"/><use y="18003" xlink:href="#g2"/><use y="18020" xlink:href="#g4"/><use y="18037" xlink:href="#g10"/><use y="18054" xlink:href="#g11"/><use y="18071" xlink:href="#g12"/><use y="18088" xlink:href="#g13"/><use y="18105" xlink:href="#g14"/><use y="18122" xlink:href="#g16"/><use y="18139" xlink:href="#g25"/><use y="18173" xlink:href="#g26"/><use y="18190" xlink:href="#g27"/><rect width="8" height="17" x="0" y="18224" class="foreground"/><use y="18224" xlink:href="#g3"/></g><g><use y="18768" xlink:href="#g1"/><use y="18785" xlink:href="#g2"/><use y="18802" xlink:href="#g4"/><use y="18819" xlink:href="#g10"/><use y="18836" xlink:href="#g11"/><use y="18853" xlink:href="#g12"/><use y="18870" xlink:href="#g13"/><use y="18887" xlink:href="#g14"/><use y="18904" xlink:href="#g16"/><use y="18921" xlink:href="#g25"/><use y="18955" xlink:href="#g26"/><use y="18972" xlink:href="#g27"/><use y="19006" xlink:href="#g28"/><use y="19023" xlink:href="#g29"/><use y="19040" xlink:href="#g30"/><use y="19074" xlink:href="#g31"/><rect width="8" height="17" x="0" y="19091" class="foreground"/><use y="19091" xlink:href="#g3"/></g><g><use y="19550" xlink:href="#g1"/><use y="19567" xlink:href="#g2"/><use y="19584" xlink:href="#g4"/><use y="19601" xlink:href="#g10"/><use y="19618" xlink:href="#g11"/><use y="19635" xlink:href="#g12"/><use y="19652" xlink:href="#g13"/><use y="19669" xlink:href="#g14"/><use y="19686" xlink:href="#g16"/><use y="19703" xlink:href="#g25"/><use y="19737" xlink:href="#g26"/><use y="19754" xlink:href="#g27"/><use y="19788" xlink:href="#g28"/><use y="19805" xlink:href="#g29"/><use y="19822" xlink:href="#g30"/><use y="19856" xlink:href="#g31"/><use y="19873" xlink:href="#g26"/><use y="19890" xlink:href="#g32"/><use y="19924" xlink:href="#g33"/><use y="19958" xlink:href="#g34"/><use y="19992" xlink:href="#g35"/><use y="20026" xlink:href="#g36"/><use y="20043" xlink:href="#g37"/><use y="20060" xlink:href="#g26"/><use y="20077" xlink:href="#g38"/><rect width="8" height="17" x="0" y="20111" class="foreground"/><use y="20111" xlink:href="#g3"/></g><g><use y="20332" xlink:href="#g1"/><use y="20349" xlink:href="#g2"/><use y="20366" xlink:href="#g4"/><use y="20383" xlink:href="#g10"/><use y="20400" xlink:href="#g11"/><use y="20417" xlink:href="#g12"/><use y="20434" xlink:href="#g13"/><use y="20451" xlink:href="#g14"/><use y="20468" xlink:href="#g16"/><use y="20485" xlink:href="#g25"/><use y="20519" xlink:href="#g26"/><use y="20536" xlink:href="#g27"/><use y="20570" xlink:href="#g28"/><use y="20587" xlink:href="#g29"/><use y="20604" xlink:href="#g30"/><use y="20638" xlink:href="#g31"/><use y="20655" xlink:href="#g26"/><use y="20672" xlink:href="#g32"/><use y="20706" xlink:href="#g33"/><use y="20740" xlink:href="#g34"/><use y="20774" xlink:href="#g35"/><use y="20808" xlink:href="#g36"/><use y="20825" xlink:href="#g37"/><use y="20842" xlink:href="#g26"/><use y="20859" xlink:href="#g38"/><use y="20893" xlink:href="#g39"/><rect width="8" height="17" x="0" y="20910" class="foreground"/><use y="20910" xlink:href="#g3"/></g><g><use y="21114" xlink:href="#g1"/><use y="21131" xlink:href="#g2"/><use y="21148" xlink:href="#g4"/><use y="21165" xlink:href="#g10"/><use y="21182" xlink:href="#g11"/><use y="21199" xlink:href="#g12"/><use y="21216" xlink:href="#g13"/><use y="21233" xlink:href="#g14"/><use y="21250" xlink:href="#g16"/><use y="21267" xlink:href="#g25"/><use y="21301" xlink:href="#g26"/><use y="21318" xlink:href="#g27"/><use y="21352" xlink:href="#g28"/><use y="21369" xlink:href="#g29"/><use y="21386" xlink:href="#g30"/><use y="21420" xlink:href="#g31"/><use y="21437" xlink:href="#g26"/><use y="21454" xlink:href="#g32"/><use y="21488" xlink:href="#g33"/><use y="21522" xlink:href="#g34"/><use y="21556" xlink:href="#g35"/><use y="21590" xlink:href="#g36"/><use y="21607" xlink:href="#g37"/><use y="21624" xlink:href="#g26"/><use y="21641" xlink:href="#g38"/><use y="21675" xlink:href="#g39"/><use y="21692" xlink:href="#g40"/><rect width="8" height="17" x="0" y="21709" class="foreground"/><use y="21709" xlink:href="#g3"/></g><g><use y="21896" xlink:href="#g1"/><use y="21913" xlink:href="#g2"/><use y="21930" xlink:href="#g4"/><use y="21947" xlink:href="#g10"/><use y="21964" xlink:href="#g11"/><use y="21981" xlink:href="#g12"/><use y="21998" xlink:href="#g13"/><use y="22015" xlink:href="#g14"/><use y="22032" xlink:href="#g16"/><use y="22049" xlink:href="#g25"/><use y="22083" xlink:href="#g26"/><use y="22100" xlink:href="#g27"/><use y="22134" xlink:href="#g28"/><use y="22151" xlink:href="#g29"/><use y="22168" xlink:href="#g30"/><use y="22202" xlink:href="#g31"/><use y="22219" xlink:href="#g26"/><use y="22236" xlink:href="#g32"/><use y="22270" xlink:href="#g33"/><use y="22304" xlink:href="#g34"/><use y="22338" xlink:href="#g35"/><use y="22372" xlink:href="#g36"/><use y="22389" xlink:href="#g37"/><use y="22406" xlink:href="#g26"/><use y="22423" xlink:href="#g38"/><use y="22457" xlink:href="#g39"/><use y="22474" xlink:href="#g40"/><use y="22491" xlink:href="#g26"/><use y="22508" xlink:href="#g41"/><rect width="8" height="17" x="0" y="22542" class="foreground"/><use y="22542" xlink:href="#g3"/></g><g><use y="22678" xlink:href="#g1"/><use y="22695" xlink:href="#g2"/><use y="22712" xlink:href="#g4"/><use y="22729" xlink:href="#g10"/><use y="22746" xlink:href="#g11"/><use y="22763" xlink:href="#g12"/><use y="22780" xlink:href="#g13"/><use y="22797" xlink:href="#g14"/><use y="22814" xlink:href="#g16"/><use y="22831" xlink:href="#g25"/><use y="22865" xlink:href="#g26"/><use y="22882" xlink:href="#g27"/><use y="22916" xlink:href="#g28"/><use y="22933" xlink:href="#g29"/><use y="22950" xlink:href="#g30"/><use y="22984" xlink:href="#g31"/><use y="23001" xlink:href="#g26"/><use y="23018" xlink:href="#g32"/><use y="23052" xlink:href="#g33"/><use y="23086" xlink:href="#g34"/><use y="23120" xlink:href="#g35"/><use y="23154" xlink:href="#g36"/><use y="23171" xlink:href="#g37"/><use y="23188" xlink:href="#g26"/><use y="23205" xlink:href="#g38"/><use y="23239" xlink:href="#g39"/><use y="23256" xlink:href="#g40"/><use y="23273" xlink:href="#g26"/><use y="23290" xlink:href="#g41"/><use y="23324" xlink:href="#g42"/><rect width="8" height="17" x="0" y="23358" class="foreground"/><use y="23358" xlink:href="#g3"/></g><g><use y="23460" xlink:href="#g11"/><use y="23477" xlink:href="#g12"/><use y="23494" xlink:href="#g13"/><use y="23511" xlink:href="#g14"/><use y="23528" xlink:href="#g16"/><use y="23545" xlink:href="#g25"/><use y="23579" xlink:href="#g26"/><use y="23596" xlink:href="#g27"/><use y="23630" xlink:href="#g28"/><use y="23647" xlink:href="#g29"/><use y="23664" xlink:href="#g30"/><use y="23698" xlink:href="#g31"/><use y="23715" xlink:href="#g26"/><use y="23732" xlink:href="#g32"/><use y="23766" xlink:href="#g33"/><use y="23800" xlink:href="#g34"/><use y="23834" xlink:href="#g35"/><use y="23868" xlink:href="#g36"/><use y="23885" xlink:href="#g37"/><use y="23902" xlink:href="#g26"/><use y="23919" xlink:href="#g38"/><use y="23953" xlink:href="#g39"/><use y="23970" xlink:href="#g40"/><use y="23987" xlink:href="#g26"/><use y="24004" xlink:href="#g41"/><use y="24038" xlink:href="#g42"/><use y="24072" xlink:href="#g43"/><use y="24089" xlink:href="#g44"/><use y="24106" xlink:href="#g45"/><use y="24123" xlink:href="#g46"/><use y="24140" xlink:href="#g47"/><use y="24157" xlink:href="#g48"/><use y="24174" xlink:href="#g49"/><rect width="8" height="17" x="1024" y="24191" class="foreground"/><use y="24191" xlink:href="#g50"/></g><g><use y="24259" xlink:href="#g34"/><use y="24293" xlink:href="#g35"/><use y="24327" xlink:href="#g36"/><use y="24344" xlink:href="#g37"/><use y="24361" xlink:href="#g26"/><use y="24378" xlink:href="#g38"/><use y="24412" xlink:href="#g39"/><use y="24429" xlink:href="#g40"/><use y="24446" xlink:href="#g26"/><use y="24463" xlink:href="#g41"/><use y="24497" xlink:href="#g42"/><use y="24531" xlink:href="#g43"/><use y="24548" xlink:href="#g44"/><use y="24565" xlink:href="#g45"/><use y="24582" xlink:href="#g46"/><use y="24599" xlink:href="#g47"/><use y="24616" xlink:href="#g48"/><use y="24633" xlink:href="#g49"/><use y="24650" xlink:href="#g51"/><use y="24667" xlink:href="#g52"/><use y="24684" xlink:href="#g53"/><use y="24701" xlink:href="#g54"/><use y="24718" xlink:href="#g55"/><use y="24735" xlink:href="#g56"/><use y="24752" xlink:href="#g57"/><use y="24769" xlink:href="#g58"/><use y="24786" xlink:href="#g59"/><use y="24803" xlink:href="#g60"/><rect width="320" height="17" x="0" y="24820" class="color0"/><use y="24820" xlink:href="#g61"/><use y="24837" xlink:href="#g62"/><use y="24854" xlink:href="#g63"/><use y="24871" xlink:href="#g64"/><use y="24888" xlink:href="#g65"/><use y="24905" xlink:href="#g66"/><use y="24922" xlink:href="#g67"/><use y="24939" xlink:href="#g68"/><use y="24956" xlink:href="#g69"/><rect width="8" height="17" x="240" y="24973" class="foreground"/><use y="24973" xlink:href="#g70"/></g><g><use y="25024" xlink:href="#g47"/><use y="25041" xlink:href="#g48"/><use y="25058" xlink:href="#g49"/><use y="25075" xlink:href="#g51"/><use y="25092" xlink:href="#g52"/><use y="25109" xlink:href="#g53"/><use y="25126" xlink:href="#g54"/><use y="25143" xlink:href="#g55"/><use y="25160" xlink:href="#g56"/><use y="25177" xlink:href="#g57"/><use y="25194" xlink:href="#g58"/><use y="25211" xlink:href="#g59"/><use y="25228" xlink:href="#g60"/><rect width="320" height="17" x="0" y="25245" class="color0"/><use y="25245" xlink:href="#g61"/><use y="25262" xlink:href="#g62"/><use y="25279" xlink:href="#g63"/><use y="25296" xlink:href="#g64"/><use y="25313" xlink:href="#g65"/><use y="25330" xlink:href="#g66"/><use y="25347" xlink:href="#g67"/><use y="25364" xlink:href="#g68"/><use y="25381" xlink:href="#g69"/><use y="25398" xlink:href="#g71"/><use y="25415" xlink:href="#g66"/><use y="25432" xlink:href="#g67"/><use y="25449" xlink:href="#g68"/><use y="25466" xlink:href="#g72"/><use y="25483" xlink:href="#g73"/><use y="25500" xlink:href="#g74"/><use y="25517" xlink:href="#g75"/><use y="25534" xlink:href="#g76"/><use y="25551" xlink:href="#g66"/><use y="25568" xlink:href="#g67"/><use y="25585" xlink:href="#g68"/><use y="25602" xlink:href="#g69"/><use y="25619" xlink:href="#g71"/><use y="25636" xlink:href="#g66"/><use y="25653" xlink:href="#g67"/><use y="25670" xlink:href="#g68"/><use y="25687" xlink:href="#g77"/><use y="25704" xlink:href="#g78"/><use y="25721" xlink:href="#g79"/><use y="25738" xlink:href="#g80"/><rect width="8" height="17" x="320" y="25755" class="foreground"/><use y="25755" xlink:href="#g81"/></g><g><use y="25806" xlink:href="#g47"/><use y="25823" xlink:href="#g48"/><use y="25840" xlink:href="#g49"/><use y="25857" xlink:href="#g51"/><use y="25874" xlink:href="#g52"/><use y="25891" xlink:href="#g53"/><use y="25908" xlink:href="#g54"/><use y="25925" xlink:href="#g55"/><use y="25942" xlink:href="#g56"/><use y="25959" xlink:href="#g57"/><use y="25976" xlink:href="#g58"/><use y="25993" xlink:href="#g59"/><use y="26010" xlink:href="#g60"/><rect width="320" height="17" x="0" y="26027" class="color0"/><use y="26027" xlink:href="#g61"/><use y="26044" xlink:href="#g62"/><use y="26061" xlink:href="#g63"/><use y="26078" xlink:href="#g64"/><use y="26095" xlink:href="#g65"/><use y="26112" xlink:href="#g66"/><use y="26129" xlink:href="#g67"/><use y="26146" xlink:href="#g68"/><use y="26163" xlink:href="#g69"/><use y="26180" xlink:href="#g71"/><use y="26197" xlink:href="#g66"/><use y="26214" xlink:href="#g67"/><use y="26231" xlink:href="#g68"/><use y="26248" xlink:href="#g72"/><use y="26265" xlink:href="#g73"/><use y="26282" xlink:href="#g74"/><use y="26299" xlink:href="#g75"/><use y="26316" xlink:href="#g76"/><use y="26333" xlink:href="#g66"/><use y="26350" xlink:href="#g67"/><use y="26367" xlink:href="#g68"/><use y="26384" xlink:href="#g69"/><use y="26401" xlink:href="#g71"/><use y="26418" xlink:href="#g66"/><use y="26435" xlink:href="#g67"/><use y="26452" xlink:href="#g68"/><use y="26469" xlink:href="#g77"/><use y="26486" xlink:href="#g78"/><use y="26503" xlink:href="#g79"/><use y="26520" xlink:href="#g80"/><rect width="8" height="17" x="0" y="26537" class="foreground"/><use y="26537" xlink:href="#g82"/></g><g><use y="26588" xlink:href="#g48"/><use y="26605" xlink:href="#g49"/><use y="26622" xlink:href="#g51"/><use y="26639" xlink:href="#g52"/><use y="26656" xlink:href="#g53"/><use y="26673" xlink:href="#g54"/><use y="26690" xlink:href="#g55"/><use y="26707" xlink:href="#g56"/><use y="26724" xlink:href="#g57"/><use y="26741" xlink:href="#g58"/><use y="26758" xlink:href="#g59"/><use y="26775" xlink:href="#g60"/><rect width="320" height="17" x="0" y="26792" class="color0"/><use y="26792" xlink:href="#g61"/><use y="26809" xlink:href="#g62"/><use y="26826" xlink:href="#g63"/><use y="26843" xlink:href="#g64"/><use y="26860" xlink:href="#g65"/><use y="26877" xlink:href="#g66"/><use y="26894" xlink:href="#g67"/><use y="26911" xlink:href="#g68"/><use y="26928" xlink:href="#g69"/><use y="26945" xlink:href="#g71"/><use y="26962" xlink:href="#g66"/><use y="26979" xlink:href="#g67"/><use y="26996" xlink:href="#g68"/><use y="27013" xlink:href="#g72"/><use y="27030" xlink:href="#g73"/><use y="27047" xlink:href="#g74"/><use y="27064" xlink:href="#g75"/><use y="27081" xlink:href="#g76"/><use y="27098" xlink:href="#g66"/><use y="27115" xlink:href="#g67"/><use y="27132" xlink:href="#g68"/><use y="27149" xlink:href="#g69"/><use y="27166" xlink:href="#g71"/><use y="27183" xlink:href="#g66"/><use y="27200" xlink:href="#g67"/><use y="27217" xlink:href="#g68"/><use y="27234" xlink:href="#g77"/><use y="27251" xlink:href="#g78"/><use y="27268" xlink:href="#g79"/><use y="27285" xlink:href="#g80"/><rect width="320" height="17" x="0" y="27302" class="color0"/><use y="27302" xlink:href="#g83"/><rect width="8" height="17" x="0" y="27319" class="foreground"/><use y="27319" xlink:href="#g3"/></g><g><use y="27370" xlink:href="#g48"/><use y="27387" xlink:href="#g49"/><use y="27404" xlink:href="#g51"/><use y="27421" xlink:href="#g52"/><use y="27438" xlink:href="#g53"/><use y="27455" xlink:href="#g54"/><use y="27472" xlink:href="#g55"/><use y="27489" xlink:href="#g56"/><use y="27506" xlink:href="#g57"/><use y="27523" xlink:href="#g58"/><use y="27540" xlink:href="#g59"/><use y="27557" xlink:href="#g60"/><rect width="320" height="17" x="0" y="27574" class="color0"/><use y="27574" xlink:href="#g61"/><use y="27591" xlink:href="#g62"/><use y="27608" xlink:href="#g63"/><use y="27625" xlink:href="#g64"/><use y="27642" xlink:href="#g65"/><use y="27659" xlink:href="#g66"/><use y="27676" xlink:href="#g67"/><use y="27693" xlink:href="#g68"/><use y="27710" xlink:href="#g69"/><use y="27727" xlink:href="#g71"/><use y="27744" xlink:href="#g66"/><use y="27761" xlink:href="#g67"/><use y="27778" xlink:href="#g68"/><use y="27795" xlink:href="#g72"/><use y="27812" xlink:href="#g73"/><use y="27829" xlink:href="#g74"/><use y="27846" xlink:href="#g75"/><use y="27863" xlink:href="#g76"/><use y="27880" xlink:href="#g66"/><use y="27897" xlink:href="#g67"/><use y="27914" xlink:href="#g68"/><use y="27931" xlink:href="#g69"/><use y="27948" xlink:href="#g71"/><use y="27965" xlink:href="#g66"/><use y="27982" xlink:href="#g67"/><use y="27999" xlink:href="#g68"/><use y="28016" xlink:href="#g77"/><use y="28033" xlink:href="#g78"/><use y="28050" xlink:href="#g79"/><use y="28067" xlink:href="#g80"/><rect width="320" height="17" x="0" y="28084" class="color0"/><use y="28084" xlink:href="#g83"/><rect width="8" height="17" x="0" y="28101" class="foreground"/><use y="28101" xlink:href="#g84"/></g><g><use y="28152" xlink:href="#g49"/><use y="28169" xlink:href="#g51"/><use y="28186" xlink:href="#g52"/><use y="28203" xlink:href="#g53"/><use y="28220" xlink:href="#g54"/><use y="28237" xlink:href="#g55"/><use y="28254" xlink:href="#g56"/><use y="28271" xlink:href="#g57"/><use y="28288" xlink:href="#g58"/><use y="28305" xlink:href="#g59"/><use y="28322" xlink:href="#g60"/><rect width="320" height="17" x="0" y="28339" class="color0"/><use y="28339" xlink:href="#g61"/><use y="28356" xlink:href="#g62"/><use y="28373" xlink:href="#g63"/><use y="28390" xlink:href="#g64"/><use y="28407" xlink:href="#g65"/><use y="28424" xlink:href="#g66"/><use y="28441" xlink:href="#g67"/><use y="28458" xlink:href="#g68"/><use y="28475" xlink:href="#g69"/><use y="28492" xlink:href="#g71"/><use y="28509" xlink:href="#g66"/><use y="28526" xlink:href="#g67"/><use y="28543" xlink:href="#g68"/><use y="28560" xlink:href="#g72"/><use y="28577" xlink:href="#g73"/><use y="28594" xlink:href="#g74"/><use y="28611" xlink:href="#g75"/><use y="28628" xlink:href="#g76"/><use y="28645" xlink:href="#g66"/><use y="28662" xlink:href="#g67"/><use y="28679" xlink:href="#g68"/><use y="28696" xlink:href="#g69"/><use y="28713" xlink:href="#g71"/><use y="28730" xlink:href="#g66"/><use y="28747" xlink:href="#g67"/><use y="28764" xlink:href="#g68"/><use y="28781" xlink:href="#g77"/><use y="28798" xlink:href="#g78"/><use y="28815" xlink:href="#g79"/><use y="28832" xlink:href="#g80"/><rect width="320" height="17" x="0" y="28849" class="color0"/><use y="28849" xlink:href="#g83"/><use y="28866" xlink:href="#g85"/><rect width="8" height="17" x="0" y="28883" class="foreground"/><use y="28883" xlink:href="#g3"/></g><g><use y="28934" xlink:href="#g57"/><use y="28951" xlink:href="#g58"/><use y="28968" xlink:href="#g59"/><use y="28985" xlink:href="#g60"/><rect width="320" height="17" x="0" y="29002" class="color0"/><use y="29002" xlink:href="#g61"/><use y="29019" xlink:href="#g62"/><use y="29036" xlink:href="#g63"/><use y="29053" xlink:href="#g64"/><use y="29070" xlink:href="#g65"/><use y="29087" xlink:href="#g66"/><use y="29104" xlink:href="#g67"/><use y="29121" xlink:href="#g68"/><use y="29138" xlink:href="#g69"/><use y="29155" xlink:href="#g71"/><use y="29172" xlink:href="#g66"/><use y="29189" xlink:href="#g67"/><use y="29206" xlink:href="#g68"/><use y="29223" xlink:href="#g72"/><use y="29240" xlink:href="#g73"/><use y="29257" xlink:href="#g74"/><use y="29274" xlink:href="#g75"/><use y="29291" xlink:href="#g76"/><use y="29308" xlink:href="#g66"/><use y="29325" xlink:href="#g67"/><use y="29342" xlink:href="#g68"/><use y="29359" xlink:href="#g69"/><use y="29376" xlink:href="#g71"/><use y="29393" xlink:href="#g66"/><use y="29410" xlink:href="#g67"/><use y="29427" xlink:href="#g68"/><use y="29444" xlink:href="#g77"/><use y="29461" xlink:href="#g78"/><use y="29478" xlink:href="#g79"/><use y="29495" xlink:href="#g80"/><rect width="320" height="17" x="0" y="29512" class="color0"/><use y="29512" xlink:href="#g83"/><use y="29529" xlink:href="#g85"/><use y="29546" xlink:href="#g86"/><use y="29563" xlink:href="#g87"/><use y="29580" xlink:href="#g88"/><use y="29597" xlink:href="#g26"/><use y="29614" xlink:href="#g89"/><use y="29648" xlink:href="#g90"/><rect width="8" height="17" x="0" y="29665" class="foreground"/><use y="29665" xlink:href="#g15"/></g><g><use y="29716" xlink:href="#g57"/><use y="29733" xlink:href="#g58"/><use y="29750" xlink:href="#g59"/><use y="29767" xlink:href="#g60"/><rect width="320" height="17" x="0" y="29784" class="color0"/><use y="29784" xlink:href="#g61"/><use y="29801" xlink:href="#g62"/><use y="29818" xlink:href="#g63"/><use y="29835" xlink:href="#g64"/><use y="29852" xlink:href="#g65"/><use y="29869" xlink:href="#g66"/><use y="29886" xlink:href="#g67"/><use y="29903" xlink:href="#g68"/><use y="29920" xlink:href="#g69"/><use y="29937" xlink:href="#g71"/><use y="29954" xlink:href="#g66"/><use y="29971" xlink:href="#g67"/><use y="29988" xlink:href="#g68"/><use y="30005" xlink:href="#g72"/><use y="30022" xlink:href="#g73"/><use y="30039" xlink:href="#g74"/><use y="30056" xlink:href="#g75"/><use y="30073" xlink:href="#g76"/><use y="30090" xlink:href="#g66"/><use y="30107" xlink:href="#g67"/><use y="30124" xlink:href="#g68"/><use y="30141" xlink:href="#g69"/><use y="30158" xlink:href="#g71"/><use y="30175" xlink:href="#g66"/><use y="30192" xlink:href="#g67"/><use y="30209" xlink:href="#g68"/><use y="30226" xlink:href="#g77"/><use y="30243" xlink:href="#g78"/><use y="30260" xlink:href="#g79"/><use y="30277" xlink:href="#g80"/><rect width="320" height="17" x="0" y="30294" class="color0"/><use y="30294" xlink:href="#g83"/><use y="30311" xlink:href="#g85"/><use y="30328" xlink:href="#g86"/><use y="30345" xlink:href="#g87"/><use y="30362" xlink:href="#g88"/><use y="30379" xlink:href="#g26"/><use y="30396" xlink:href="#g89"/><use y="30430" xlink:href="#g90"/><rect width="8" height="17" x="0" y="30447" class="foreground"/><use y="30447" xlink:href="#g15"/></g><g><use y="30498" xlink:href="#g58"/><use y="30515" xlink:href="#g59"/><use y="30532" xlink:href="#g60"/><rect width="320" height="17" x="0" y="30549" class="color0"/><use y="30549" xlink:href="#g61"/><use y="30566" xlink:href="#g62"/><use y="30583" xlink:href="#g63"/><use y="30600" xlink:href="#g64"/><use y="30617" xlink:href="#g65"/><use y="30634" xlink:href="#g66"/><use y="30651" xlink:href="#g67"/><use y="30668" xlink:href="#g68"/><use y="30685" xlink:href="#g69"/><use y="30702" xlink:href="#g71"/><use y="30719" xlink:href="#g66"/><use y="30736" xlink:href="#g67"/><use y="30753" xlink:href="#g68"/><use y="30770" xlink:href="#g72"/><use y="30787" xlink:href="#g73"/><use y="30804" xlink:href="#g74"/><use y="30821" xlink:href="#g75"/><use y="30838" xlink:href="#g76"/><use y="30855" xlink:href="#g66"/><use y="30872" xlink:href="#g67"/><use y="30889" xlink:href="#g68"/><use y="30906" xlink:href="#g69"/><use y="30923" xlink:href="#g71"/><use y="30940" xlink:href="#g66"/><use y="30957" xlink:href="#g67"/><use y="30974" xlink:href="#g68"/><use y="30991" xlink:href="#g77"/><use y="31008" xlink:href="#g78"/><use y="31025" xlink:href="#g79"/><use y="31042" xlink:href="#g80"/><rect width="320" height="17" x="0" y="31059" class="color0"/><use y="31059" xlink:href="#g83"/><use y="31076" xlink:href="#g85"/><use y="31093" xlink:href="#g86"/><use y="31110" xlink:href="#g87"/><use y="31127" xlink:href="#g88"/><use y="31144" xlink:href="#g26"/><use y="31161" xlink:href="#g89"/><use y="31195" xlink:href="#g90"/><use y="31212" xlink:href="#g91"/><rect width="8" height="17" x="16" y="31229" class="foreground"/><use y="31229" xlink:href="#g5"/></g><g><use y="31280" xlink:href="#g59"/><use y="31297" xlink:href="#g60"/><rect width="320" height="17" x="0" y="31314" class="color0"/><use y="31314" xlink:href="#g61"/><use y="31331" xlink:href="#g62"/><use y="31348" xlink:href="#g63"/><use y="31365" xlink:href="#g64"/><use y="31382" xlink:href="#g65"/><use y="31399" xlink:href="#g66"/><use y="31416" xlink:href="#g67"/><use y="31433" xlink:href="#g68"/><use y="31450" xlink:href="#g69"/><use y="31467" xlink:href="#g71"/><use y="31484" xlink:href="#g66"/><use y="31501" xlink:href="#g67"/><use y="31518" xlink:href="#g68"/><use y="31535" xlink:href="#g72"/><use y="31552" xlink:href="#g73"/><use y="31569" xlink:href="#g74"/><use y="31586" xlink:href="#g75"/><use y="31603" xlink:href="#g76"/><use y="31620" xlink:href="#g66"/><use y="31637" xlink:href="#g67"/><use y="31654" xlink:href="#g68"/><use y="31671" xlink:href="#g69"/><use y="31688" xlink:href="#g71"/><use y="31705" xlink:href="#g66"/><use y="31722" xlink:href="#g67"/><use y="31739" xlink:href="#g68"/><use y="31756" xlink:href="#g77"/><use y="31773" xlink:href="#g78"/><use y="31790" xlink:href="#g79"/><use y="31807" xlink:href="#g80"/><rect width="320" height="17" x="0" y="31824" class="color0"/><use y="31824" xlink:href="#g83"/><use y="31841" xlink:href="#g85"/><use y="31858" xlink:href="#g86"/><use y="31875" xlink:href="#g87"/><use y="31892" xlink:href="#g88"/><use y="31909" xlink:href="#g26"/><use y="31926" xlink:href="#g89"/><use y="31960" xlink:href="#g90"/><use y="31977" xlink:href="#g91"/><use y="31994" xlink:href="#g92"/><rect width="8" height="17" x="0" y="32011" class="foreground"/><use y="32011" xlink:href="#g3"/></g><g><use y="32062" xlink:href="#g59"/><use y="32079" xlink:href="#g60"/><rect width="320" height="17" x="0" y="32096" class="color0"/><use y="32096" xlink:href="#g61"/><use y="32113" xlink:href="#g62"/><use y="32130" xlink:href="#g63"/><use y="32147" xlink:href="#g64"/><use y="32164" xlink:href="#g65"/><use y="32181" xlink:href="#g66"/><use y="32198" xlink:href="#g67"/><use y="32215" xlink:href="#g68"/><use y="32232" xlink:href="#g69"/><use y="32249" xlink:href="#g71"/><use y="32266" xlink:href="#g66"/><use y="32283" xlink:href="#g67"/><use y="32300" xlink:href="#g68"/><use y="32317" xlink:href="#g72"/><use y="32334" xlink:href="#g73"/><use y="32351" xlink:href="#g74"/><use y="32368" xlink:href="#g75"/><use y="32385" xlink:href="#g76"/><use y="32402" xlink:href="#g66"/><use y="32419" xlink:href="#g67"/><use y="32436" xlink:href="#g68"/><use y="32453" xlink:href="#g69"/><use y="32470" xlink:href="#g71"/><use y="32487" xlink:href="#g66"/><use y="32504" xlink:href="#g67"/><use y="32521" xlink:href="#g68"/><use y="32538" xlink:href="#g77"/><use y="32555" xlink:href="#g78"/><use y="32572" xlink:href="#g79"/><use y="32589" xlink:href="#g80"/><rect width="320" height="17" x="0" y="32606" class="color0"/><use y="32606" xlink:href="#g83"/><use y="32623" xlink:href="#g85"/><use y="32640" xlink:href="#g86"/><use y="32657" xlink:href="#g87"/><use y="32674" xlink:href="#g88"/><use y="32691" xlink:href="#g26"/><use y="32708" xlink:href="#g89"/><use y="32742" xlink:href="#g90"/><use y="32759" xlink:href="#g91"/><use y="32776" xlink:href="#g92"/><rect width="8" height="17" x="0" y="32793" class="foreground"/><use y="32793" xlink:href="#g3"/></g></g></svg></svg>