<svg xmlns="http://www.w3.org/2000/svg" xmlns:xlink="http://www.w3.org/1999/xlink" id="terminal" width="632" baseProfile="full" version="1.1" viewBox="0 0 632 342"><defs><termtosvg:template_settings xmlns:termtosvg="https://github.com/nbedos/termtosvg"><termtosvg:screen_geometry columns="79" rows="20"/><termtosvg:animation type="css"/></termtosvg:template_settings><style id="generated-style" type="text/css">@keyframes roll{0%{transform:translateY(0)}.814%{transform:translateY(-374px)}.83%{transform:translateY(-748px)}.972%{transform:translateY(-1122px)}3.572%{transform:translateY(-1496px)}10.375%{transform:translateY(-1870px)}10.399%{transform:translateY(-2244px)}11.545%{transform:translateY(-2618px)}13.394%{transform:translateY(-2992px)}13.402%{transform:translateY(-3366px)}13.56%{transform:translateY(-3740px)}13.584%{transform:translateY(-4114px)}15.662%{transform:translateY(-4488px)}15.875%{transform:translateY(-4862px)}27.009%{transform:translateY(-5236px)}27.056%{transform:translateY(-5610px)}27.997%{transform:translateY(-5984px)}28.044%{transform:translateY(-6358px)}29.158%{transform:translateY(-6732px)}29.182%{transform:translateY(-7106px)}32.722%{transform:translateY(-7480px)}32.746%{transform:translateY(-7854px)}36.033%{transform:translateY(-8228px)}36.065%{transform:translateY(-8602px)}36.12%{transform:translateY(-8976px)}36.16%{transform:translateY(-9350px)}37.819%{transform:translateY(-9724px)}38.024%{transform:translateY(-10098px)}50.47%{transform:translateY(-10472px)}50.525%{transform:translateY(-10846px)}51.268%{transform:translateY(-11220px)}51.308%{transform:translateY(-11594px)}53.852%{transform:translateY(-11968px)}53.892%{transform:translateY(-12342px)}56.547%{transform:translateY(-12716px)}57.764%{transform:translateY(-13090px)}58.696%{transform:translateY(-13464px)}60.782%{transform:translateY(-13838px)}60.853%{transform:translateY(-14212px)}60.925%{transform:translateY(-14586px)}61.478%{transform:translateY(-14960px)}61.517%{transform:translateY(-15334px)}61.659%{transform:translateY(-15708px)}61.81%{transform:translateY(-16082px)}62.007%{transform:translateY(-16456px)}64.275%{transform:translateY(-16830px)}64.552%{transform:translateY(-17204px)}72.548%{transform:translateY(-17578px)}72.604%{transform:translateY(-17952px)}73.757%{transform:translateY(-18326px)}76.27%{transform:translateY(-18700px)}76.326%{transform:translateY(-19074px)}76.389%{transform:translateY(-19448px)}78.665%{transform:translateY(-19822px)}79.012%{transform:translateY(-20196px)}79.068%{transform:translateY(-20570px)}92.051%{transform:translateY(-20944px)}92.098%{transform:translateY(-21318px)}}#screen{font-family:&apos;DejaVu Sans Mono&apos;,monospace;font-style:normal;font-size:14px}text{dominant-baseline:text-before-edge;white-space:pre}:root{--animation-duration: 12655ms}#screen_view{animation-duration:12655ms;animation-iteration-count:infinite;animation-name:roll;animation-timing-function:steps(1,end);animation-fill-mode:forwards}</style><style id="user-style" type="text/css">.foreground{fill:#000}.background{fill:#fff}.color0{fill:#0c0c0c}.color4{fill:#0037da}.color5{fill:#881798}.color12{fill:#3b78ff}</style></defs><svg id="screen" width="632" height="340" preserveAspectRatio="xMidYMin slice" viewBox="0 0 632 340"><rect width="100%" height="100%" x="0" y="0" class="background"/><defs><g id="g1"><text x="0" class="foreground" textLength="104">Hi Hexley! 🍏</text></g><g id="g4"><text x="0" class="color4" textLength="72">/tmp/demo</text></g><g id="g5"><text x="0" class="color5" textLength="8">❯</text></g><g id="g6"><text x="0" class="color5" textLength="8">❯</text><text x="8" class="foreground" textLength="16">l</text></g><g id="g7"><text x="0" class="color5" textLength="8">❯</text><text x="16" fill="red" textLength="8">l</text><text x="24" class="background" textLength="8">l</text></g><g id="g8"><text x="0" class="color5" textLength="8">❯</text><text x="16" fill="#005fd7" textLength="16">ll</text></g><g id="g9"><text x="0" class="color5" textLength="8">❯</text><text x="16" fill="#005fd7" textLength="16">ll</text></g><g id="g10"><text x="0" class="foreground" textLength="72">total 912</text></g><g id="g11"><text x="0" class="foreground" textLength="432">-rw-r--r--@ 1 tgotwig wheel 228K May 19 2016 1.mp4</text></g><g id="g12"><text x="0" class="foreground" textLength="432">-rw-r--r--@ 1 tgotwig wheel 228K May 19 2016 2.mp4</text></g><g id="g14"><text x="0" class="color5" textLength="8">❯</text><text x="8" class="foreground" textLength="16">v</text></g><g id="g15"><text x="0" class="color5" textLength="8">❯</text><text x="16" fill="red" textLength="8">v</text><text x="24" class="background" textLength="8">i</text><text x="32" fill="#555" textLength="96">dmerger . -p</text></g><g id="g16"><text x="0" class="color5" textLength="8">❯</text><text x="16" fill="red" textLength="16">vi</text><text x="32" class="background" textLength="8">d</text><text x="40" fill="#555" textLength="88">merger . -p</text></g><g id="g17"><text x="0" class="color5" textLength="8">❯</text><text x="16" fill="#005fd7" textLength="16">vi</text><text x="32" class="background" textLength="8">d</text><text x="40" fill="#555" textLength="88">merger . -p</text></g><g id="g18"><text x="0" class="color5" textLength="8">❯</text><text x="16" fill="#005fd7" textLength="24">vid</text><text x="40" class="background" textLength="8">m</text><text x="48" fill="#555" textLength="80">erger . -p</text></g><g id="g19"><text x="0" class="color5" textLength="8">❯</text><text x="16" fill="red" textLength="24">vid</text><text x="40" class="background" textLength="8">m</text><text x="48" fill="#555" textLength="80">erger . -p</text></g><g id="g20"><text x="0" class="color5" textLength="8">❯</text><text x="16" fill="red" textLength="112">vidmerger . -p</text></g><g id="g21"><text x="0" class="color5" textLength="8">❯</text><text x="16" fill="#005fd7" textLength="72">vidmerger</text><text x="96" fill="#00afff" text-decoration="underline" textLength="8">.</text><text x="112" fill="#00afff" textLength="16">-p</text></g><g id="g22"><text x="0" class="color5" textLength="8">❯</text><text x="16" fill="#005fd7" textLength="72">vidmerger</text><text x="96" fill="#00afff" text-decoration="underline" textLength="8">.</text><text x="112" fill="#00afff" textLength="16">-p</text></g><g id="g23"><text x="0" class="foreground" textLength="152">Order of merging 👇</text></g><g id="g24"><text x="0" class="color12" font-weight="bold" textLength="96">file &apos;1.mp4&apos;</text></g><g id="g25"><text x="0" class="color12" font-weight="bold" textLength="96">file &apos;2.mp4&apos;</text></g><g id="g26"><text x="0" class="color5" textLength="8">❯</text><text x="16" fill="#005fd7" textLength="112">vidmerger . -p</text></g><g id="g27"><text x="0" class="color5" textLength="8">❯</text><text x="16" fill="#005fd7" textLength="72">vidmerger</text><text x="96" fill="#00afff" text-decoration="underline" textLength="8">.</text><text x="112" fill="#00afff" textLength="8">-</text></g><g id="g28"><text x="0" class="color5" textLength="8">❯</text><text x="16" fill="#005fd7" textLength="72">vidmerger</text><text x="96" fill="#00afff" text-decoration="underline" textLength="8">.</text></g><g id="g29"><text x="0" class="color5" textLength="8">❯</text><text x="16" fill="#005fd7" textLength="72">vidmerger</text><text x="96" fill="#00afff" text-decoration="underline" textLength="8">.</text></g><g id="g30"><text x="0" class="color5" textLength="8">❯</text><text x="16" fill="#005fd7" textLength="72">vidmerger</text><text x="96" fill="#00afff" text-decoration="underline" textLength="8">.</text></g><g id="g31"><text x="0" class="foreground" textLength="544">Calling: &apos;ffmpeg -y -f concat -i ./list.txt -c copy ./output.mp4&apos; 🚀</text></g><g id="g32"><text x="0" class="foreground" textLength="512">ffmpeg version 4.4 Copyright (c) 2000-2021 the FFmpeg developers</text></g><g id="g33"><text x="0" class="foreground" textLength="480">built with Apple clang version 12.0.0 (clang-1200.0.32.29)</text></g><g id="g34"><text x="0" class="foreground" textLength="632">configuration: --prefix=/usr/local/Cellar/ffmpeg/4.4_1 --enable-shared --enab</text></g><g id="g35"><text x="0" class="foreground" textLength="632">le-pthreads --enable-version3 --enable-avresample --cc=clang --host-cflags= --h</text></g><g id="g36"><text x="0" class="foreground" textLength="632">ost-ldflags= --enable-ffplay --enable-gnutls --enable-gpl --enable-libaom --ena</text></g><g id="g37"><text x="0" class="foreground" textLength="632">ble-libbluray --enable-libdav1d --enable-libmp3lame --enable-libopus --enable-l</text></g><g id="g38"><text x="0" class="foreground" textLength="632">ibrav1e --enable-librubberband --enable-libsnappy --enable-libsrt --enable-libt</text></g><g id="g39"><text x="0" class="foreground" textLength="632">esseract --enable-libtheora --enable-libvidstab --enable-libvorbis --enable-lib</text></g><g id="g40"><text x="0" class="foreground" textLength="632">vpx --enable-libwebp --enable-libx264 --enable-libx265 --enable-libxml2 --enabl</text></g><g id="g41"><text x="0" class="foreground" textLength="632">e-libxvid --enable-lzma --enable-libfontconfig --enable-libfreetype --enable-fr</text></g><g id="g42"><text x="0" class="foreground" textLength="632">ei0r --enable-libass --enable-libopencore-amrnb --enable-libopencore-amrwb --en</text></g><g id="g43"><text x="0" class="foreground" textLength="632">able-libopenjpeg --enable-libspeex --enable-libsoxr --enable-libzmq --enable-li</text></g><g id="g44"><text x="0" class="foreground" textLength="528">bzimg --disable-libjack --disable-indev=jack --enable-videotoolbox</text></g><g id="g45"><text x="0" class="foreground" textLength="304">libavutil 56. 70.100 / 56. 70.1</text></g><g id="g46"><text x="0" class="foreground" textLength="320">libavutil 56. 70.100 / 56. 70.100</text></g><g id="g47"><text x="0" class="foreground" textLength="320">libavcodec 58.134.100 / 58.134.100</text></g><g id="g48"><text x="0" class="foreground" textLength="320">libavformat 58. 76.100 / 58. 76.100</text></g><g id="g49"><text x="0" class="foreground" textLength="320">libavdevice 58. 13.100 / 58. 13.100</text></g><g id="g50"><text x="0" class="foreground" textLength="320">libavfilter 7.110.100 / 7.110.100</text></g><g id="g51"><text x="0" class="foreground" textLength="320">libavresample 4. 0. 0 / 4. 0. 0</text></g><g id="g52"><text x="0" class="foreground" textLength="320">libswscale 5. 9.100 / 5. 9.100</text></g><g id="g53"><text x="0" class="foreground" textLength="320">libswresample 3. 9.100 / 3. 9.100</text></g><g id="g54"><text x="0" class="foreground" textLength="320">libpostproc 55. 9.100 / 55. 9.100</text></g><g id="g55"><text x="0" class="foreground" textLength="632">Stream #0:0(und): Video: h264 (Constrained Baseline) (avc1 / 0x31637661), yuv</text></g><g id="g56"><text x="0" class="foreground" textLength="592">420p, 640x360 [SAR 1:1 DAR 16:9], 135 kb/s, 30 fps, 30 tbr, 30 tbn, 60 tbc</text></g><g id="g57"><text x="0" class="foreground" textLength="104">Metadata:</text></g><g id="g58"><text x="0" class="foreground" textLength="288">handler_name : VideoHandler</text></g><g id="g59"><text x="0" class="foreground" textLength="288">vendor_id : [0][0][0][0]</text></g><g id="g60"><text x="0" class="foreground" textLength="632">Stream #0:1(und): Audio: aac (LC) (mp4a / 0x6134706D), 44100 Hz, stereo, fltp</text></g><g id="g61"><text x="0" class="foreground" textLength="72">, 96 kb/s</text></g><g id="g62"><text x="0" class="foreground" textLength="408">creation_time : 2016-05-19T13:24:59.000000Z</text></g><g id="g63"><text x="0" class="foreground" textLength="536">handler_name : IsoMedia File Produced by Google, 5-11-2011</text></g><g id="g64"><text x="0" class="foreground" textLength="272">Output #0, mp4, to &apos;./output.mp4&apos;:</text></g><g id="g65"><text x="0" class="foreground" textLength="88">Metadata:</text></g><g id="g66"><text x="0" class="foreground" textLength="280">encoder : Lavf58.76.100</text></g><g id="g67"><text x="0" class="foreground" textLength="632">420p, 640x360 [SAR 1:1 DAR 16:9], q=2-31, 135 kb/s, 30 fps, 30 tbr, 15360 tbn,</text></g><g id="g68"><text x="0" class="foreground" textLength="48">30 tbc</text></g><g id="g69"><text x="0" class="foreground" textLength="120">Stream mapping:</text></g><g id="g70"><text x="0" class="foreground" textLength="224">Stream #0:0 -&gt; #0:0 (copy)</text></g><g id="g71"><text x="0" class="foreground" textLength="224">Stream #0:1 -&gt; #0:1 (copy)</text></g><g id="g72"><text x="0" class="foreground" textLength="248">Press [q] to stop, [?] for help</text></g><g id="g73"><text x="0" class="foreground" textLength="632">frame= 1 fps=0.0 q=-1.0 size= 0kB time=00:00:00.00 bitrate=5907.7kbits</text></g><g id="g74"><text x="0" class="background" textLength="8">/</text><text x="8" class="foreground" textLength="136">s speed= 65x</text></g><g id="g75"><text x="0" fill="#ff5fff" textLength="344">[mov,mp4,m4a,3gp,3g2,mj2 @ 0x7fcaec009e00]</text><text x="344" class="foreground" textLength="288">Auto-inserting h264_mp4toannexb bits</text></g><g id="g76"><text x="0" class="foreground" textLength="96">tream filter</text></g><g id="g77"><text x="0" class="foreground" textLength="632">frame= 474 fps=0.0 q=-1.0 Lsize= 463kB time=00:00:15.95 bitrate= 237.8kbit</text></g><g id="g78"><text x="0" class="foreground" textLength="152">s/s speed= 541x</text></g><g id="g79"><text x="0" class="foreground" textLength="632">video:261kB audio:187kB subtitle:0kB other streams:0kB global headers:0kB muxin</text></g><g id="g80"><text x="0" class="foreground" textLength="168">g overhead: 3.244152%</text></g><g id="g81"><text x="0" class="foreground" textLength="576">Ok(Output { status: ExitStatus(ExitStatus(0)), stdout: &quot;&quot;, stderr: &quot;&quot; })</text></g><g id="g82"><text x="0" class="foreground" textLength="320">Successfully generated &apos;output.mp4&apos;! 😆🎞</text></g><g id="g83"><text x="0" class="foreground" textLength="80">total 1840</text></g><g id="g84"><text x="0" class="foreground" textLength="472">-rw-r--r-- 1 tgotwig wheel 463K May 22 12:34 output.mp4</text></g><g id="g85"><text x="0" class="color5" textLength="8">❯</text></g></defs><g id="screen_view"><g><use y="0" xlink:href="#g1"/><rect width="8" height="17" x="0" y="17" class="foreground"/><use y="17" xlink:href="#g2"/></g><g><use y="374" xlink:href="#g1"/><rect width="8" height="17" x="0" y="391" class="foreground"/><use y="391" xlink:href="#g2"/></g><g><use y="748" xlink:href="#g1"/><rect width="8" height="17" x="0" y="765" class="foreground"/><use y="765" xlink:href="#g3"/></g><g><use y="1122" xlink:href="#g1"/><rect width="8" height="17" x="0" y="1139" class="foreground"/><use y="1139" xlink:href="#g3"/></g><g><use y="1496" xlink:href="#g1"/><use y="1513" xlink:href="#g4"/><rect width="8" height="17" x="16" y="1530" class="foreground"/><use y="1530" xlink:href="#g5"/></g><g><use y="1870" xlink:href="#g1"/><use y="1887" xlink:href="#g4"/><rect width="8" height="17" x="24" y="1904" class="foreground"/><use y="1904" xlink:href="#g6"/></g><g><use y="2244" xlink:href="#g1"/><use y="2261" xlink:href="#g4"/><rect width="8" height="17" x="24" y="2278" class="foreground"/><use y="2278" xlink:href="#g7"/></g><g><use y="2618" xlink:href="#g1"/><use y="2635" xlink:href="#g4"/><rect width="8" height="17" x="32" y="2652" class="foreground"/><use y="2652" xlink:href="#g8"/></g><g><use y="2992" xlink:href="#g1"/><use y="3009" xlink:href="#g4"/><use y="3026" xlink:href="#g9"/><rect width="8" height="17" x="0" y="3043" class="foreground"/><use y="3043" xlink:href="#g2"/></g><g><use y="3366" xlink:href="#g1"/><use y="3383" xlink:href="#g4"/><use y="3400" xlink:href="#g9"/><rect width="8" height="17" x="0" y="3417" class="foreground"/><use y="3417" xlink:href="#g2"/></g><g><use y="3740" xlink:href="#g1"/><use y="3757" xlink:href="#g4"/><use y="3774" xlink:href="#g9"/><use y="3791" xlink:href="#g10"/><rect width="8" height="17" x="0" y="3808" class="foreground"/><use y="3808" xlink:href="#g2"/></g><g><use y="4114" xlink:href="#g1"/><use y="4131" xlink:href="#g4"/><use y="4148" xlink:href="#g9"/><use y="4165" xlink:href="#g10"/><use y="4182" xlink:href="#g11"/><use y="4199" xlink:href="#g12"/><use y="4216" xlink:href="#g13"/><rect width="8" height="17" x="0" y="4233" class="foreground"/><use y="4233" xlink:href="#g2"/></g><g><use y="4488" xlink:href="#g1"/><use y="4505" xlink:href="#g4"/><use y="4522" xlink:href="#g9"/><use y="4539" xlink:href="#g10"/><use y="4556" xlink:href="#g11"/><use y="4573" xlink:href="#g12"/><use y="4590" xlink:href="#g13"/><rect width="8" height="17" x="0" y="4607" class="foreground"/><use y="4607" xlink:href="#g2"/></g><g><use y="4862" xlink:href="#g1"/><use y="4879" xlink:href="#g4"/><use y="4896" xlink:href="#g9"/><use y="4913" xlink:href="#g10"/><use y="4930" xlink:href="#g11"/><use y="4947" xlink:href="#g12"/><use y="4964" xlink:href="#g13"/><use y="4981" xlink:href="#g4"/><rect width="8" height="17" x="16" y="4998" class="foreground"/><use y="4998" xlink:href="#g5"/></g><g><use y="5236" xlink:href="#g1"/><use y="5253" xlink:href="#g4"/><use y="5270" xlink:href="#g9"/><use y="5287" xlink:href="#g10"/><use y="5304" xlink:href="#g11"/><use y="5321" xlink:href="#g12"/><use y="5338" xlink:href="#g13"/><use y="5355" xlink:href="#g4"/><rect width="8" height="17" x="24" y="5372" class="foreground"/><use y="5372" xlink:href="#g14"/></g><g><use y="5610" xlink:href="#g1"/><use y="5627" xlink:href="#g4"/><use y="5644" xlink:href="#g9"/><use y="5661" xlink:href="#g10"/><use y="5678" xlink:href="#g11"/><use y="5695" xlink:href="#g12"/><use y="5712" xlink:href="#g13"/><use y="5729" xlink:href="#g4"/><rect width="8" height="17" x="24" y="5746" class="foreground"/><use y="5746" xlink:href="#g15"/></g><g><use y="5984" xlink:href="#g1"/><use y="6001" xlink:href="#g4"/><use y="6018" xlink:href="#g9"/><use y="6035" xlink:href="#g10"/><use y="6052" xlink:href="#g11"/><use y="6069" xlink:href="#g12"/><use y="6086" xlink:href="#g13"/><use y="6103" xlink:href="#g4"/><rect width="8" height="17" x="32" y="6120" class="foreground"/><use y="6120" xlink:href="#g16"/></g><g><use y="6358" xlink:href="#g1"/><use y="6375" xlink:href="#g4"/><use y="6392" xlink:href="#g9"/><use y="6409" xlink:href="#g10"/><use y="6426" xlink:href="#g11"/><use y="6443" xlink:href="#g12"/><use y="6460" xlink:href="#g13"/><use y="6477" xlink:href="#g4"/><rect width="8" height="17" x="32" y="6494" class="foreground"/><use y="6494" xlink:href="#g17"/></g><g><use y="6732" xlink:href="#g1"/><use y="6749" xlink:href="#g4"/><use y="6766" xlink:href="#g9"/><use y="6783" xlink:href="#g10"/><use y="6800" xlink:href="#g11"/><use y="6817" xlink:href="#g12"/><use y="6834" xlink:href="#g13"/><use y="6851" xlink:href="#g4"/><rect width="8" height="17" x="40" y="6868" class="foreground"/><use y="6868" xlink:href="#g18"/></g><g><use y="7106" xlink:href="#g1"/><use y="7123" xlink:href="#g4"/><use y="7140" xlink:href="#g9"/><use y="7157" xlink:href="#g10"/><use y="7174" xlink:href="#g11"/><use y="7191" xlink:href="#g12"/><use y="7208" xlink:href="#g13"/><use y="7225" xlink:href="#g4"/><rect width="8" height="17" x="40" y="7242" class="foreground"/><use y="7242" xlink:href="#g19"/></g><g><use y="7480" xlink:href="#g1"/><use y="7497" xlink:href="#g4"/><use y="7514" xlink:href="#g9"/><use y="7531" xlink:href="#g10"/><use y="7548" xlink:href="#g11"/><use y="7565" xlink:href="#g12"/><use y="7582" xlink:href="#g13"/><use y="7599" xlink:href="#g4"/><rect width="8" height="17" x="128" y="7616" class="foreground"/><use y="7616" xlink:href="#g20"/></g><g><use y="7854" xlink:href="#g1"/><use y="7871" xlink:href="#g4"/><use y="7888" xlink:href="#g9"/><use y="7905" xlink:href="#g10"/><use y="7922" xlink:href="#g11"/><use y="7939" xlink:href="#g12"/><use y="7956" xlink:href="#g13"/><use y="7973" xlink:href="#g4"/><rect width="8" height="17" x="128" y="7990" class="foreground"/><use y="7990" xlink:href="#g21"/></g><g><use y="8228" xlink:href="#g1"/><use y="8245" xlink:href="#g4"/><use y="8262" xlink:href="#g9"/><use y="8279" xlink:href="#g10"/><use y="8296" xlink:href="#g11"/><use y="8313" xlink:href="#g12"/><use y="8330" xlink:href="#g13"/><use y="8347" xlink:href="#g4"/><use y="8364" xlink:href="#g22"/><rect width="8" height="17" x="0" y="8381" class="foreground"/><use y="8381" xlink:href="#g2"/></g><g><use y="8602" xlink:href="#g1"/><use y="8619" xlink:href="#g4"/><use y="8636" xlink:href="#g9"/><use y="8653" xlink:href="#g10"/><use y="8670" xlink:href="#g11"/><use y="8687" xlink:href="#g12"/><use y="8704" xlink:href="#g13"/><use y="8721" xlink:href="#g4"/><use y="8738" xlink:href="#g22"/><rect width="8" height="17" x="0" y="8755" class="foreground"/><use y="8755" xlink:href="#g2"/></g><g><use y="8976" xlink:href="#g1"/><use y="8993" xlink:href="#g4"/><use y="9010" xlink:href="#g9"/><use y="9027" xlink:href="#g10"/><use y="9044" xlink:href="#g11"/><use y="9061" xlink:href="#g12"/><use y="9078" xlink:href="#g13"/><use y="9095" xlink:href="#g4"/><use y="9112" xlink:href="#g22"/><use y="9146" xlink:href="#g23"/><rect width="8" height="17" x="0" y="9180" class="foreground"/><use y="9180" xlink:href="#g2"/></g><g><use y="9350" xlink:href="#g1"/><use y="9367" xlink:href="#g4"/><use y="9384" xlink:href="#g9"/><use y="9401" xlink:href="#g10"/><use y="9418" xlink:href="#g11"/><use y="9435" xlink:href="#g12"/><use y="9452" xlink:href="#g13"/><use y="9469" xlink:href="#g4"/><use y="9486" xlink:href="#g22"/><use y="9520" xlink:href="#g23"/><use y="9554" xlink:href="#g24"/><use y="9571" xlink:href="#g25"/><use y="9605" xlink:href="#g13"/><rect width="8" height="17" x="0" y="9622" class="foreground"/><use y="9622" xlink:href="#g2"/></g><g><use y="9724" xlink:href="#g1"/><use y="9741" xlink:href="#g4"/><use y="9758" xlink:href="#g9"/><use y="9775" xlink:href="#g10"/><use y="9792" xlink:href="#g11"/><use y="9809" xlink:href="#g12"/><use y="9826" xlink:href="#g13"/><use y="9843" xlink:href="#g4"/><use y="9860" xlink:href="#g22"/><use y="9894" xlink:href="#g23"/><use y="9928" xlink:href="#g24"/><use y="9945" xlink:href="#g25"/><use y="9979" xlink:href="#g13"/><rect width="8" height="17" x="0" y="9996" class="foreground"/><use y="9996" xlink:href="#g2"/></g><g><use y="10098" xlink:href="#g1"/><use y="10115" xlink:href="#g4"/><use y="10132" xlink:href="#g9"/><use y="10149" xlink:href="#g10"/><use y="10166" xlink:href="#g11"/><use y="10183" xlink:href="#g12"/><use y="10200" xlink:href="#g13"/><use y="10217" xlink:href="#g4"/><use y="10234" xlink:href="#g22"/><use y="10268" xlink:href="#g23"/><use y="10302" xlink:href="#g24"/><use y="10319" xlink:href="#g25"/><use y="10353" xlink:href="#g13"/><use y="10370" xlink:href="#g4"/><rect width="8" height="17" x="16" y="10387" class="foreground"/><use y="10387" xlink:href="#g5"/></g><g><use y="10472" xlink:href="#g1"/><use y="10489" xlink:href="#g4"/><use y="10506" xlink:href="#g9"/><use y="10523" xlink:href="#g10"/><use y="10540" xlink:href="#g11"/><use y="10557" xlink:href="#g12"/><use y="10574" xlink:href="#g13"/><use y="10591" xlink:href="#g4"/><use y="10608" xlink:href="#g22"/><use y="10642" xlink:href="#g23"/><use y="10676" xlink:href="#g24"/><use y="10693" xlink:href="#g25"/><use y="10727" xlink:href="#g13"/><use y="10744" xlink:href="#g4"/><rect width="8" height="17" x="24" y="10761" class="foreground"/><use y="10761" xlink:href="#g14"/></g><g><use y="10846" xlink:href="#g1"/><use y="10863" xlink:href="#g4"/><use y="10880" xlink:href="#g9"/><use y="10897" xlink:href="#g10"/><use y="10914" xlink:href="#g11"/><use y="10931" xlink:href="#g12"/><use y="10948" xlink:href="#g13"/><use y="10965" xlink:href="#g4"/><use y="10982" xlink:href="#g22"/><use y="11016" xlink:href="#g23"/><use y="11050" xlink:href="#g24"/><use y="11067" xlink:href="#g25"/><use y="11101" xlink:href="#g13"/><use y="11118" xlink:href="#g4"/><rect width="8" height="17" x="24" y="11135" class="foreground"/><use y="11135" xlink:href="#g15"/></g><g><use y="11220" xlink:href="#g1"/><use y="11237" xlink:href="#g4"/><use y="11254" xlink:href="#g9"/><use y="11271" xlink:href="#g10"/><use y="11288" xlink:href="#g11"/><use y="11305" xlink:href="#g12"/><use y="11322" xlink:href="#g13"/><use y="11339" xlink:href="#g4"/><use y="11356" xlink:href="#g22"/><use y="11390" xlink:href="#g23"/><use y="11424" xlink:href="#g24"/><use y="11441" xlink:href="#g25"/><use y="11475" xlink:href="#g13"/><use y="11492" xlink:href="#g4"/><rect width="8" height="17" x="32" y="11509" class="foreground"/><use y="11509" xlink:href="#g16"/></g><g><use y="11594" xlink:href="#g1"/><use y="11611" xlink:href="#g4"/><use y="11628" xlink:href="#g9"/><use y="11645" xlink:href="#g10"/><use y="11662" xlink:href="#g11"/><use y="11679" xlink:href="#g12"/><use y="11696" xlink:href="#g13"/><use y="11713" xlink:href="#g4"/><use y="11730" xlink:href="#g22"/><use y="11764" xlink:href="#g23"/><use y="11798" xlink:href="#g24"/><use y="11815" xlink:href="#g25"/><use y="11849" xlink:href="#g13"/><use y="11866" xlink:href="#g4"/><rect width="8" height="17" x="32" y="11883" class="foreground"/><use y="11883" xlink:href="#g17"/></g><g><use y="11968" xlink:href="#g1"/><use y="11985" xlink:href="#g4"/><use y="12002" xlink:href="#g9"/><use y="12019" xlink:href="#g10"/><use y="12036" xlink:href="#g11"/><use y="12053" xlink:href="#g12"/><use y="12070" xlink:href="#g13"/><use y="12087" xlink:href="#g4"/><use y="12104" xlink:href="#g22"/><use y="12138" xlink:href="#g23"/><use y="12172" xlink:href="#g24"/><use y="12189" xlink:href="#g25"/><use y="12223" xlink:href="#g13"/><use y="12240" xlink:href="#g4"/><rect width="8" height="17" x="128" y="12257" class="foreground"/><use y="12257" xlink:href="#g26"/></g><g><use y="12342" xlink:href="#g1"/><use y="12359" xlink:href="#g4"/><use y="12376" xlink:href="#g9"/><use y="12393" xlink:href="#g10"/><use y="12410" xlink:href="#g11"/><use y="12427" xlink:href="#g12"/><use y="12444" xlink:href="#g13"/><use y="12461" xlink:href="#g4"/><use y="12478" xlink:href="#g22"/><use y="12512" xlink:href="#g23"/><use y="12546" xlink:href="#g24"/><use y="12563" xlink:href="#g25"/><use y="12597" xlink:href="#g13"/><use y="12614" xlink:href="#g4"/><rect width="8" height="17" x="128" y="12631" class="foreground"/><use y="12631" xlink:href="#g21"/></g><g><use y="12716" xlink:href="#g1"/><use y="12733" xlink:href="#g4"/><use y="12750" xlink:href="#g9"/><use y="12767" xlink:href="#g10"/><use y="12784" xlink:href="#g11"/><use y="12801" xlink:href="#g12"/><use y="12818" xlink:href="#g13"/><use y="12835" xlink:href="#g4"/><use y="12852" xlink:href="#g22"/><use y="12886" xlink:href="#g23"/><use y="12920" xlink:href="#g24"/><use y="12937" xlink:href="#g25"/><use y="12971" xlink:href="#g13"/><use y="12988" xlink:href="#g4"/><rect width="8" height="17" x="120" y="13005" class="foreground"/><use y="13005" xlink:href="#g27"/></g><g><use y="13090" xlink:href="#g1"/><use y="13107" xlink:href="#g4"/><use y="13124" xlink:href="#g9"/><use y="13141" xlink:href="#g10"/><use y="13158" xlink:href="#g11"/><use y="13175" xlink:href="#g12"/><use y="13192" xlink:href="#g13"/><use y="13209" xlink:href="#g4"/><use y="13226" xlink:href="#g22"/><use y="13260" xlink:href="#g23"/><use y="13294" xlink:href="#g24"/><use y="13311" xlink:href="#g25"/><use y="13345" xlink:href="#g13"/><use y="13362" xlink:href="#g4"/><rect width="8" height="17" x="112" y="13379" class="foreground"/><use y="13379" xlink:href="#g28"/></g><g><use y="13464" xlink:href="#g1"/><use y="13481" xlink:href="#g4"/><use y="13498" xlink:href="#g9"/><use y="13515" xlink:href="#g10"/><use y="13532" xlink:href="#g11"/><use y="13549" xlink:href="#g12"/><use y="13566" xlink:href="#g13"/><use y="13583" xlink:href="#g4"/><use y="13600" xlink:href="#g22"/><use y="13634" xlink:href="#g23"/><use y="13668" xlink:href="#g24"/><use y="13685" xlink:href="#g25"/><use y="13719" xlink:href="#g13"/><use y="13736" xlink:href="#g4"/><rect width="8" height="17" x="104" y="13753" class="foreground"/><use y="13753" xlink:href="#g29"/></g><g><use y="13838" xlink:href="#g1"/><use y="13855" xlink:href="#g4"/><use y="13872" xlink:href="#g9"/><use y="13889" xlink:href="#g10"/><use y="13906" xlink:href="#g11"/><use y="13923" xlink:href="#g12"/><use y="13940" xlink:href="#g13"/><use y="13957" xlink:href="#g4"/><use y="13974" xlink:href="#g22"/><use y="14008" xlink:href="#g23"/><use y="14042" xlink:href="#g24"/><use y="14059" xlink:href="#g25"/><use y="14093" xlink:href="#g13"/><use y="14110" xlink:href="#g4"/><use y="14127" xlink:href="#g30"/><rect width="8" height="17" x="0" y="14144" class="foreground"/><use y="14144" xlink:href="#g2"/></g><g><use y="14212" xlink:href="#g1"/><use y="14229" xlink:href="#g4"/><use y="14246" xlink:href="#g9"/><use y="14263" xlink:href="#g10"/><use y="14280" xlink:href="#g11"/><use y="14297" xlink:href="#g12"/><use y="14314" xlink:href="#g13"/><use y="14331" xlink:href="#g4"/><use y="14348" xlink:href="#g22"/><use y="14382" xlink:href="#g23"/><use y="14416" xlink:href="#g24"/><use y="14433" xlink:href="#g25"/><use y="14467" xlink:href="#g13"/><use y="14484" xlink:href="#g4"/><use y="14501" xlink:href="#g30"/><rect width="8" height="17" x="0" y="14518" class="foreground"/><use y="14518" xlink:href="#g2"/></g><g><use y="14586" xlink:href="#g4"/><use y="14603" xlink:href="#g22"/><use y="14637" xlink:href="#g23"/><use y="14671" xlink:href="#g24"/><use y="14688" xlink:href="#g25"/><use y="14722" xlink:href="#g13"/><use y="14739" xlink:href="#g4"/><use y="14756" xlink:href="#g30"/><use y="14790" xlink:href="#g23"/><use y="14824" xlink:href="#g24"/><use y="14841" xlink:href="#g25"/><use y="14875" xlink:href="#g31"/><rect width="8" height="17" x="0" y="14909" class="foreground"/><use y="14909" xlink:href="#g2"/></g><g><use y="14977" xlink:href="#g24"/><use y="14994" xlink:href="#g25"/><use y="15028" xlink:href="#g31"/><use y="15062" xlink:href="#g32"/><use y="15079" xlink:href="#g33"/><use y="15096" xlink:href="#g34"/><use y="15113" xlink:href="#g35"/><use y="15130" xlink:href="#g36"/><use y="15147" xlink:href="#g37"/><use y="15164" xlink:href="#g38"/><use y="15181" xlink:href="#g39"/><use y="15198" xlink:href="#g40"/><use y="15215" xlink:href="#g41"/><use y="15232" xlink:href="#g42"/><use y="15249" xlink:href="#g43"/><use y="15266" xlink:href="#g44"/><rect width="8" height="17" x="304" y="15283" class="foreground"/><use y="15283" xlink:href="#g45"/></g><g><use y="15334" xlink:href="#g35"/><use y="15351" xlink:href="#g36"/><use y="15368" xlink:href="#g37"/><use y="15385" xlink:href="#g38"/><use y="15402" xlink:href="#g39"/><use y="15419" xlink:href="#g40"/><use y="15436" xlink:href="#g41"/><use y="15453" xlink:href="#g42"/><use y="15470" xlink:href="#g43"/><use y="15487" xlink:href="#g44"/><use y="15504" xlink:href="#g46"/><use y="15521" xlink:href="#g47"/><use y="15538" xlink:href="#g48"/><use y="15555" xlink:href="#g49"/><use y="15572" xlink:href="#g50"/><use y="15589" xlink:href="#g51"/><use y="15606" xlink:href="#g52"/><use y="15623" xlink:href="#g53"/><use y="15640" xlink:href="#g54"/><rect width="8" height="17" x="0" y="15657" class="foreground"/><use y="15657" xlink:href="#g2"/></g><g><use y="15708" xlink:href="#g55"/><use y="15725" xlink:href="#g56"/><use y="15742" xlink:href="#g57"/><use y="15759" xlink:href="#g58"/><use y="15776" xlink:href="#g59"/><use y="15793" xlink:href="#g60"/><use y="15810" xlink:href="#g61"/><use y="15827" xlink:href="#g57"/><use y="15844" xlink:href="#g62"/><use y="15861" xlink:href="#g63"/><use y="15878" xlink:href="#g59"/><use y="15895" xlink:href="#g64"/><use y="15912" xlink:href="#g65"/><use y="15929" xlink:href="#g66"/><use y="15946" xlink:href="#g55"/><use y="15963" xlink:href="#g67"/><use y="15980" xlink:href="#g68"/><use y="15997" xlink:href="#g57"/><use y="16014" xlink:href="#g58"/><rect width="8" height="17" x="0" y="16031" class="foreground"/><use y="16031" xlink:href="#g2"/></g><g><use y="16082" xlink:href="#g65"/><use y="16099" xlink:href="#g66"/><use y="16116" xlink:href="#g55"/><use y="16133" xlink:href="#g67"/><use y="16150" xlink:href="#g68"/><use y="16167" xlink:href="#g57"/><use y="16184" xlink:href="#g58"/><use y="16201" xlink:href="#g59"/><use y="16218" xlink:href="#g60"/><use y="16235" xlink:href="#g61"/><use y="16252" xlink:href="#g57"/><use y="16269" xlink:href="#g62"/><use y="16286" xlink:href="#g63"/><use y="16303" xlink:href="#g59"/><use y="16320" xlink:href="#g69"/><use y="16337" xlink:href="#g70"/><use y="16354" xlink:href="#g71"/><use y="16371" xlink:href="#g72"/><use y="16388" xlink:href="#g73"/><rect width="8" height="17" x="0" y="16405" class="foreground"/><use y="16405" xlink:href="#g74"/></g><g><use y="16456" xlink:href="#g57"/><use y="16473" xlink:href="#g62"/><use y="16490" xlink:href="#g63"/><use y="16507" xlink:href="#g59"/><use y="16524" xlink:href="#g69"/><use y="16541" xlink:href="#g70"/><use y="16558" xlink:href="#g71"/><use y="16575" xlink:href="#g72"/><use y="16592" xlink:href="#g73"/><rect width="344" height="17" x="0" y="16609" class="color0"/><use y="16609" xlink:href="#g75"/><use y="16626" xlink:href="#g76"/><use y="16643" xlink:href="#g77"/><use y="16660" xlink:href="#g78"/><use y="16677" xlink:href="#g79"/><use y="16694" xlink:href="#g80"/><use y="16711" xlink:href="#g81"/><use y="16745" xlink:href="#g82"/><use y="16762" xlink:href="#g13"/><rect width="8" height="17" x="0" y="16779" class="foreground"/><use y="16779" xlink:href="#g2"/></g><g><use y="16830" xlink:href="#g57"/><use y="16847" xlink:href="#g62"/><use y="16864" xlink:href="#g63"/><use y="16881" xlink:href="#g59"/><use y="16898" xlink:href="#g69"/><use y="16915" xlink:href="#g70"/><use y="16932" xlink:href="#g71"/><use y="16949" xlink:href="#g72"/><use y="16966" xlink:href="#g73"/><rect width="344" height="17" x="0" y="16983" class="color0"/><use y="16983" xlink:href="#g75"/><use y="17000" xlink:href="#g76"/><use y="17017" xlink:href="#g77"/><use y="17034" xlink:href="#g78"/><use y="17051" xlink:href="#g79"/><use y="17068" xlink:href="#g80"/><use y="17085" xlink:href="#g81"/><use y="17119" xlink:href="#g82"/><use y="17136" xlink:href="#g13"/><rect width="8" height="17" x="0" y="17153" class="foreground"/><use y="17153" xlink:href="#g2"/></g><g><use y="17204" xlink:href="#g62"/><use y="17221" xlink:href="#g63"/><use y="17238" xlink:href="#g59"/><use y="17255" xlink:href="#g69"/><use y="17272" xlink:href="#g70"/><use y="17289" xlink:href="#g71"/><use y="17306" xlink:href="#g72"/><use y="17323" xlink:href="#g73"/><rect width="344" height="17" x="0" y="17340" class="color0"/><use y="17340" xlink:href="#g75"/><use y="17357" xlink:href="#g76"/><use y="17374" xlink:href="#g77"/><use y="17391" xlink:href="#g78"/><use y="17408" xlink:href="#g79"/><use y="17425" xlink:href="#g80"/><use y="17442" xlink:href="#g81"/><use y="17476" xlink:href="#g82"/><use y="17493" xlink:href="#g13"/><use y="17510" xlink:href="#g4"/><rect width="8" height="17" x="16" y="17527" class="foreground"/><use y="17527" xlink:href="#g5"/></g><g><use y="17578" xlink:href="#g62"/><use y="17595" xlink:href="#g63"/><use y="17612" xlink:href="#g59"/><use y="17629" xlink:href="#g69"/><use y="17646" xlink:href="#g70"/><use y="17663" xlink:href="#g71"/><use y="17680" xlink:href="#g72"/><use y="17697" xlink:href="#g73"/><rect width="344" height="17" x="0" y="17714" class="color0"/><use y="17714" xlink:href="#g75"/><use y="17731" xlink:href="#g76"/><use y="17748" xlink:href="#g77"/><use y="17765" xlink:href="#g78"/><use y="17782" xlink:href="#g79"/><use y="17799" xlink:href="#g80"/><use y="17816" xlink:href="#g81"/><use y="17850" xlink:href="#g82"/><use y="17867" xlink:href="#g13"/><use y="17884" xlink:href="#g4"/><rect width="8" height="17" x="24" y="17901" class="foreground"/><use y="17901" xlink:href="#g6"/></g><g><use y="17952" xlink:href="#g62"/><use y="17969" xlink:href="#g63"/><use y="17986" xlink:href="#g59"/><use y="18003" xlink:href="#g69"/><use y="18020" xlink:href="#g70"/><use y="18037" xlink:href="#g71"/><use y="18054" xlink:href="#g72"/><use y="18071" xlink:href="#g73"/><rect width="344" height="17" x="0" y="18088" class="color0"/><use y="18088" xlink:href="#g75"/><use y="18105" xlink:href="#g76"/><use y="18122" xlink:href="#g77"/><use y="18139" xlink:href="#g78"/><use y="18156" xlink:href="#g79"/><use y="18173" xlink:href="#g80"/><use y="18190" xlink:href="#g81"/><use y="18224" xlink:href="#g82"/><use y="18241" xlink:href="#g13"/><use y="18258" xlink:href="#g4"/><rect width="8" height="17" x="24" y="18275" class="foreground"/><use y="18275" xlink:href="#g7"/></g><g><use y="18326" xlink:href="#g62"/><use y="18343" xlink:href="#g63"/><use y="18360" xlink:href="#g59"/><use y="18377" xlink:href="#g69"/><use y="18394" xlink:href="#g70"/><use y="18411" xlink:href="#g71"/><use y="18428" xlink:href="#g72"/><use y="18445" xlink:href="#g73"/><rect width="344" height="17" x="0" y="18462" class="color0"/><use y="18462" xlink:href="#g75"/><use y="18479" xlink:href="#g76"/><use y="18496" xlink:href="#g77"/><use y="18513" xlink:href="#g78"/><use y="18530" xlink:href="#g79"/><use y="18547" xlink:href="#g80"/><use y="18564" xlink:href="#g81"/><use y="18598" xlink:href="#g82"/><use y="18615" xlink:href="#g13"/><use y="18632" xlink:href="#g4"/><rect width="8" height="17" x="32" y="18649" class="foreground"/><use y="18649" xlink:href="#g8"/></g><g><use y="18700" xlink:href="#g63"/><use y="18717" xlink:href="#g59"/><use y="18734" xlink:href="#g69"/><use y="18751" xlink:href="#g70"/><use y="18768" xlink:href="#g71"/><use y="18785" xlink:href="#g72"/><use y="18802" xlink:href="#g73"/><rect width="344" height="17" x="0" y="18819" class="color0"/><use y="18819" xlink:href="#g75"/><use y="18836" xlink:href="#g76"/><use y="18853" xlink:href="#g77"/><use y="18870" xlink:href="#g78"/><use y="18887" xlink:href="#g79"/><use y="18904" xlink:href="#g80"/><use y="18921" xlink:href="#g81"/><use y="18955" xlink:href="#g82"/><use y="18972" xlink:href="#g13"/><use y="18989" xlink:href="#g4"/><use y="19006" xlink:href="#g9"/><rect width="8" height="17" x="0" y="19023" class="foreground"/><use y="19023" xlink:href="#g2"/></g><g><use y="19074" xlink:href="#g63"/><use y="19091" xlink:href="#g59"/><use y="19108" xlink:href="#g69"/><use y="19125" xlink:href="#g70"/><use y="19142" xlink:href="#g71"/><use y="19159" xlink:href="#g72"/><use y="19176" xlink:href="#g73"/><rect width="344" height="17" x="0" y="19193" class="color0"/><use y="19193" xlink:href="#g75"/><use y="19210" xlink:href="#g76"/><use y="19227" xlink:href="#g77"/><use y="19244" xlink:href="#g78"/><use y="19261" xlink:href="#g79"/><use y="19278" xlink:href="#g80"/><use y="19295" xlink:href="#g81"/><use y="19329" xlink:href="#g82"/><use y="19346" xlink:href="#g13"/><use y="19363" xlink:href="#g4"/><use y="19380" xlink:href="#g9"/><rect width="8" height="17" x="0" y="19397" class="foreground"/><use y="19397" xlink:href="#g2"/></g><g><use y="19448" xlink:href="#g72"/><use y="19465" xlink:href="#g73"/><rect width="344" height="17" x="0" y="19482" class="color0"/><use y="19482" xlink:href="#g75"/><use y="19499" xlink:href="#g76"/><use y="19516" xlink:href="#g77"/><use y="19533" xlink:href="#g78"/><use y="19550" xlink:href="#g79"/><use y="19567" xlink:href="#g80"/><use y="19584" xlink:href="#g81"/><use y="19618" xlink:href="#g82"/><use y="19635" xlink:href="#g13"/><use y="19652" xlink:href="#g4"/><use y="19669" xlink:href="#g9"/><use y="19686" xlink:href="#g83"/><use y="19703" xlink:href="#g11"/><use y="19720" xlink:href="#g12"/><use y="19737" xlink:href="#g84"/><use y="19754" xlink:href="#g13"/><rect width="8" height="17" x="0" y="19771" class="foreground"/><use y="19771" xlink:href="#g2"/></g><g><use y="19822" xlink:href="#g72"/><use y="19839" xlink:href="#g73"/><rect width="344" height="17" x="0" y="19856" class="color0"/><use y="19856" xlink:href="#g75"/><use y="19873" xlink:href="#g76"/><use y="19890" xlink:href="#g77"/><use y="19907" xlink:href="#g78"/><use y="19924" xlink:href="#g79"/><use y="19941" xlink:href="#g80"/><use y="19958" xlink:href="#g81"/><use y="19992" xlink:href="#g82"/><use y="20009" xlink:href="#g13"/><use y="20026" xlink:href="#g4"/><use y="20043" xlink:href="#g9"/><use y="20060" xlink:href="#g83"/><use y="20077" xlink:href="#g11"/><use y="20094" xlink:href="#g12"/><use y="20111" xlink:href="#g84"/><use y="20128" xlink:href="#g13"/><rect width="8" height="17" x="0" y="20145" class="foreground"/><use y="20145" xlink:href="#g2"/></g><g><use y="20196" xlink:href="#g72"/><use y="20213" xlink:href="#g73"/><rect width="344" height="17" x="0" y="20230" class="color0"/><use y="20230" xlink:href="#g75"/><use y="20247" xlink:href="#g76"/><use y="20264" xlink:href="#g77"/><use y="20281" xlink:href="#g78"/><use y="20298" xlink:href="#g79"/><use y="20315" xlink:href="#g80"/><use y="20332" xlink:href="#g81"/><use y="20366" xlink:href="#g82"/><use y="20383" xlink:href="#g13"/><use y="20400" xlink:href="#g4"/><use y="20417" xlink:href="#g9"/><use y="20434" xlink:href="#g83"/><use y="20451" xlink:href="#g11"/><use y="20468" xlink:href="#g12"/><use y="20485" xlink:href="#g84"/><use y="20502" xlink:href="#g13"/><rect width="8" height="17" x="0" y="20519" class="foreground"/><use y="20519" xlink:href="#g2"/></g><g><use y="20570" xlink:href="#g73"/><rect width="344" height="17" x="0" y="20587" class="color0"/><use y="20587" xlink:href="#g75"/><use y="20604" xlink:href="#g76"/><use y="20621" xlink:href="#g77"/><use y="20638" xlink:href="#g78"/><use y="20655" xlink:href="#g79"/><use y="20672" xlink:href="#g80"/><use y="20689" xlink:href="#g81"/><use y="20723" xlink:href="#g82"/><use y="20740" xlink:href="#g13"/><use y="20757" xlink:href="#g4"/><use y="20774" xlink:href="#g9"/><use y="20791" xlink:href="#g83"/><use y="20808" xlink:href="#g11"/><use y="20825" xlink:href="#g12"/><use y="20842" xlink:href="#g84"/><use y="20859" xlink:href="#g13"/><use y="20876" xlink:href="#g4"/><rect width="8" height="17" x="16" y="20893" class="foreground"/><use y="20893" xlink:href="#g5"/></g><g><rect width="344" height="17" x="0" y="20944" class="color0"/><use y="20944" xlink:href="#g75"/><use y="20961" xlink:href="#g76"/><use y="20978" xlink:href="#g77"/><use y="20995" xlink:href="#g78"/><use y="21012" xlink:href="#g79"/><use y="21029" xlink:href="#g80"/><use y="21046" xlink:href="#g81"/><use y="21080" xlink:href="#g82"/><use y="21097" xlink:href="#g13"/><use y="21114" xlink:href="#g4"/><use y="21131" xlink:href="#g9"/><use y="21148" xlink:href="#g83"/><use y="21165" xlink:href="#g11"/><use y="21182" xlink:href="#g12"/><use y="21199" xlink:href="#g84"/><use y="21216" xlink:href="#g13"/><use y="21233" xlink:href="#g4"/><use y="21250" xlink:href="#g85"/><rect width="8" height="17" x="0" y="21267" class="foreground"/><use y="21267" xlink:href="#g2"/></g><g><rect width="344" height="17" x="0" y="21318" class="color0"/><use y="21318" xlink:href="#g75"/><use y="21335" xlink:href="#g76"/><use y="21352" xlink:href="#g77"/><use y="21369" xlink:href="#g78"/><use y="21386" xlink:href="#g79"/><use y="21403" xlink:href="#g80"/><use y="21420" xlink:href="#g81"/><use y="21454" xlink:href="#g82"/><use y="21471" xlink:href="#g13"/><use y="21488" xlink:href="#g4"/><use y="21505" xlink:href="#g9"/><use y="21522" xlink:href="#g83"/><use y="21539" xlink:href="#g11"/><use y="21556" xlink:href="#g12"/><use y="21573" xlink:href="#g84"/><use y="21590" xlink:href="#g13"/><use y="21607" xlink:href="#g4"/><use y="21624" xlink:href="#g85"/><rect width="8" height="17" x="0" y="21641" class="foreground"/><use y="21641" xlink:href="#g2"/></g></g></svg></svg>
